<?xml version="1.0" encoding="utf-8"?>
<!-- Generator: Adobe Illustrator 22.1.0, SVG Export Plug-In . SVG Version: 6.00 Build 0)  -->
<svg version="1.1" id="Слой_1" xmlns="http://www.w3.org/2000/svg" xmlns:xlink="http://www.w3.org/1999/xlink" x="0px" y="0px"
	 viewBox="0 0 20 20" style="enable-background:new 0 0 20 20;" xml:space="preserve">
<style type="text/css">
	.st0{fill:#F43A1C;}
</style>
<g>
	<g>
		<path class="st0" d="M10,0C4.5,0,0,4.5,0,10s4.5,10,10,10s10-4.5,10-10S15.5,0,10,0z M10,18.8c-4.8,0-8.8-3.9-8.8-8.8
			c0-4.8,3.9-8.8,8.8-8.8c4.8,0,8.8,3.9,8.8,8.8C18.8,14.8,14.8,18.8,10,18.8z M12.9,12.1L10.8,10l2.1-2.1c0.2-0.2,0.2-0.6,0-0.8
			c-0.2-0.2-0.6-0.2-0.8,0L10,9.2L7.9,7.1C7.6,6.9,7.2,7,7,7.3C6.9,7.5,6.9,7.7,7,7.9L9.2,10L7,12.1c-0.3,0.2-0.4,0.5-0.3,0.8
			c0.2,0.3,0.5,0.4,0.8,0.3c0.1-0.1,0.2-0.2,0.3-0.3l2.1-2.1l2.1,2.1c0.2,0.3,0.5,0.4,0.8,0.3c0.3-0.2,0.4-0.5,0.3-0.8
			C13.1,12.3,13.1,12.2,12.9,12.1z"/>
	</g>
</g>
</svg>
