<svg id="Layer_1" data-name="Layer 1" xmlns="http://www.w3.org/2000/svg" viewBox="0 0 1837.02 1840.05"><defs><style>.cls-1{fill:#28d16c;}.cls-2{fill:#18ba60;}.cls-3{fill:#0ba9d7;}.cls-4{fill:#20c462;}.cls-5{fill:none;stroke:#20c462;stroke-linecap:round;stroke-miterlimit:10;}</style></defs><title>Artboard 3</title><polygon class="cls-1" points="354.69 864.85 667.08 318.89 1297.47 318.89 985.09 864.85 354.69 864.85"/><polygon class="cls-2" points="354.69 966.16 664.26 1489.62 1297.47 1489.62 987.9 966.16 354.69 966.16"/><polygon class="cls-3" points="1455.11 527.32 1370.64 380.8 1066.7 908 1370.64 1444.59 1450.28 1303.97 1674.58 908 1455.11 527.32"/><circle class="cls-4" cx="1419.22" cy="1634.1" r="90.21" transform="translate(-497.23 2639.91) rotate(-76.72)"/><circle class="cls-4" cx="150.85" cy="912.69" r="90.21"/><circle class="cls-4" cx="1441.95" cy="205.95" r="90.21"/><path class="cls-5" d="M1228.58,1651.78a781.37,781.37,0,0,1-234.1,35.65c-371.33,0-682.21-258.85-762-605.95"/><path class="cls-5" d="M1532.19,337.88c150.39,142.5,244.19,344.12,244.19,567.65,0,234.58-103.3,445-266.89,588.34"/><path class="cls-5" d="M232.63,728.83c80.1-346.73,390.79-605.2,761.85-605.2a780.29,780.29,0,0,1,275.41,49.88"/></svg>