<?xml version="1.0" encoding="utf-8"?>
<!-- Generator: Adobe Illustrator 22.1.0, SVG Export Plug-In . SVG Version: 6.00 Build 0)  -->
<svg version="1.1" id="Layer_1" xmlns="http://www.w3.org/2000/svg" xmlns:xlink="http://www.w3.org/1999/xlink" x="0px" y="0px"
	 viewBox="0 0 500 500" style="enable-background:new 0 0 500 500;" xml:space="preserve">
<style type="text/css">
	.st0{fill:#BDC3C7;}
	.st1{fill:#94A5A6;}
	.st2{fill:#ECF0F1;}
	.st3{fill:#32485D;}
	.st4{fill:#2A3E4E;}
</style>
<g>
	<path class="st0" d="M420.1,392.5c0,7.2-5.7,12.9-12.9,12.9H93.5c-7.2,0-12.9-5.7-12.9-12.9V78.9c0-7.2,5.7-12.9,12.9-12.9h313.6
		c7.2,0,12.9,5.7,12.9,12.9L420.1,392.5L420.1,392.5z"/>
	<path class="st1" d="M107.1,78.4c-7,0-12.9,5.7-12.9,12.9v287.4c0,7,5.7,12.9,12.9,12.9h287.4c7,0,12.9-5.7,12.9-12.9V91.3
		c0-7-5.7-12.9-12.9-12.9L107.1,78.4L107.1,78.4z M400.9,372.1c0,7-5.7,12.9-12.9,12.9H113.7c-7,0-12.9-5.7-12.9-12.9V97.8
		c0-7,5.7-12.9,12.9-12.9H388c7,0,12.9,5.7,12.9,12.9V372.1L400.9,372.1z"/>
	<path class="st2" d="M437.2,173.1c0,7.2-5.7,12.9-12.9,12.9h-31.7c-7.2,0-12.9-5.7-12.9-12.9v-28c0-7.2,5.7-12.9,12.9-12.9h31.7
		c7.2,0,12.9,5.7,12.9,12.9V173.1z"/>
	<path class="st2" d="M437.2,325.1c0,7.2-5.7,12.9-12.9,12.9h-31.7c-7.2,0-12.9-5.7-12.9-12.9v-28c0-7.2,5.7-12.9,12.9-12.9h31.7
		c7.2,0,12.9,5.7,12.9,12.9V325.1z"/>
	<rect x="102.7" y="405.4" class="st3" width="63.7" height="29.4"/>
	<rect x="102.7" y="406.7" class="st4" width="63.7" height="12.2"/>
	<rect x="335.5" y="405.4" class="st3" width="63.7" height="29.4"/>
	<rect x="335.5" y="406.7" class="st4" width="63.7" height="12.2"/>
	<g>
		<path class="st0" d="M400.1,146.1c0,3.5-2.8,6.2-6.2,6.2c-3.5,0-6.2-2.8-6.2-6.2c0-3.5,2.8-6.2,6.2-6.2
			C397.3,140.1,400.1,142.8,400.1,146.1z"/>
		<path class="st0" d="M400.1,172.1c0,3.5-2.8,6.2-6.2,6.2c-3.5,0-6.2-2.8-6.2-6.2c0-3.5,2.8-6.2,6.2-6.2
			C397.3,165.9,400.1,168.6,400.1,172.1z"/>
		<path class="st0" d="M429.1,146.1c0,3.5-2.8,6.2-6.2,6.2c-3.5,0-6.2-2.8-6.2-6.2c0-3.5,2.8-6.2,6.2-6.2
			C426.3,140.1,429.1,142.8,429.1,146.1z"/>
		<path class="st0" d="M429.1,172.1c0,3.5-2.8,6.2-6.2,6.2c-3.5,0-6.2-2.8-6.2-6.2c0-3.5,2.8-6.2,6.2-6.2
			C426.3,165.9,429.1,168.6,429.1,172.1z"/>
	</g>
	<g>
		<path class="st0" d="M400.1,298.1c0,3.5-2.8,6.2-6.2,6.2c-3.5,0-6.2-2.8-6.2-6.2c0-3.4,2.8-6.2,6.2-6.2
			C397.3,292.1,400.1,294.8,400.1,298.1z"/>
		<path class="st0" d="M400.1,324.1c0,3.5-2.8,6.2-6.2,6.2c-3.5,0-6.2-2.8-6.2-6.2c0-3.5,2.8-6.2,6.2-6.2
			C397.3,317.9,400.1,320.6,400.1,324.1z"/>
		<path class="st0" d="M429.1,298.1c0,3.5-2.8,6.2-6.2,6.2c-3.5,0-6.2-2.8-6.2-6.2c0-3.4,2.8-6.2,6.2-6.2
			C426.3,292.1,429.1,294.8,429.1,298.1z"/>
		<path class="st0" d="M429.1,324.1c0,3.5-2.8,6.2-6.2,6.2c-3.5,0-6.2-2.8-6.2-6.2c0-3.5,2.8-6.2,6.2-6.2
			C426.3,317.9,429.1,320.6,429.1,324.1z"/>
	</g>
	<ellipse class="st1" cx="250.7" cy="241" rx="81.2" ry="81.2"/>
	<circle class="st0" cx="250.8" cy="241" r="72.1"/>
	<g>
		<path class="st2" d="M263.1,186.8c0,7.9-5.5,14.4-12.2,14.4c-6.8,0-12.2-6.5-12.2-14.4v-42.3c0-7.9,5.5-14.4,12.2-14.4
			c6.8,0,12.2,6.5,12.2,14.4V186.8z"/>
	</g>
	<g>
		<path class="st2" d="M238.4,283c0-7.9,5.5-14.4,12.2-14.4c6.8,0,12.2,6.5,12.2,14.4v42.4c0,7.9-5.5,14.4-12.2,14.4
			c-6.8,0-12.2-6.5-12.2-14.4L238.4,283L238.4,283z"/>
	</g>
	<path class="st2" d="M261.9,188.4c0,7-5.5,12.9-12.2,12.9s-12.2-5.7-12.2-12.9v-45.2c0-7,5.5-12.9,12.2-12.9
		c6.8,0,12.2,5.7,12.2,12.9V188.4z"/>
	<path class="st2" d="M237.5,281.6c0-7,5.5-12.9,12.2-12.9c6.8,0,12.2,5.7,12.2,12.9v45.2c0,7-5.5,12.9-12.2,12.9
		s-12.2-5.7-12.2-12.9L237.5,281.6L237.5,281.6z"/>
	<path class="st2" d="M297.4,248.7c-7,0-12.9-5.5-12.9-12.2c0-6.8,5.7-12.2,12.9-12.2h45.2c7,0,12.9,5.5,12.9,12.2
		c0,6.8-5.7,12.2-12.9,12.2H297.4z"/>
	<path class="st2" d="M204.3,224.2c7,0,12.9,5.5,12.9,12.2c0,6.8-5.7,12.2-12.9,12.2h-45.2c-7,0-12.9-5.5-12.9-12.2
		c0-6.8,5.7-12.2,12.9-12.2H204.3z"/>
	<path class="st1" d="M249.7,201.3c6.8,0,12.2-5.7,12.2-12.9v-15.7c-3.6-0.7-7.8-1-12-1c-4.3,0-8.9,0.4-12.5,1.1v15.7
		C237.5,195.4,243,201.3,249.7,201.3z"/>
	<path class="st1" d="M249.7,268.5c-6.8,0-12.2,5.7-12.2,12.9v28c3.6,0.7,8.2,1.1,12.5,1.1c4,0,8.2-0.4,12-1v-28.1
		C261.9,274.4,256.5,268.5,249.7,268.5z"/>
	<path class="st1" d="M318,224.2h-20.6c-7,0-12.9,5.5-12.9,12.2c0,6.8,5.7,12.2,12.9,12.2h22.7c0.3-2.4,0.3-4.4,0.3-6.8
		C320.3,235.7,319.6,229,318,224.2z"/>
	<path class="st1" d="M217.1,236.4c0-6.8-5.7-12.2-12.9-12.2h-20.7c-1.5,4.9-2.3,11.5-2.3,17.7c0,2.3,0.2,4.3,0.3,6.8h22.9
		C211.3,248.7,217.1,243,217.1,236.4z"/>
	<circle class="st2" cx="250.8" cy="241" r="63.1"/>
	<path class="st0" d="M304.1,241c0,29.4-24,53.3-53.3,53.3s-53.3-24-53.3-53.3s24-53.3,53.3-53.3S304.1,211.6,304.1,241z"/>
	
		<ellipse transform="matrix(0.3162 -0.9487 0.9487 0.3162 -57.2747 402.7191)" class="st1" cx="250.7" cy="241.1" rx="38.5" ry="38.5"/>
	<ellipse transform="matrix(0.2298 -0.9732 0.9732 0.2298 -41.6583 429.6559)" class="st2" cx="250.6" cy="241.1" rx="32" ry="32"/>
</g>
</svg>
