<svg id="Layer_1" data-name="Layer 1" xmlns="http://www.w3.org/2000/svg" viewBox="0 0 599.89 595.28"><defs><style>.cls-1{fill:#f7931a;}.cls-2{fill:#fff;}</style></defs><title>Artboard 2</title><path class="cls-1" d="M559.29,362.38c-35.75,143.39-181,230.64-324.37,194.9S4.33,376.3,40.09,232.93,221,2.26,364.39,38,595,219,559.29,362.38Z"/><path class="cls-2" d="M417.68,259.51C423,223.9,395.9,204.76,358.82,192l12-48.24-29.36-7.31-11.71,47c-7.72-1.92-15.65-3.73-23.52-5.53l11.79-47.28-29.35-7.32-12,48.23c-6.4-1.46-12.67-2.9-18.75-4.41l0-.15-40.5-10.11-7.81,31.36s21.79,5,21.32,5.3c11.9,3,14,10.84,13.69,17.08l-13.7,55a25.91,25.91,0,0,1,3.05,1l-3.1-.77-19.2,77c-1.46,3.61-5.15,9-13.46,7,.29.43-21.35-5.33-21.35-5.33L162.31,378l38.22,9.53c7.11,1.78,14.07,3.64,20.93,5.4l-12.15,48.79L238.64,449l12-48.29c8,2.18,15.79,4.18,23.4,6.09l-12,48,29.36,7.32,12.16-48.7c50.07,9.48,87.73,5.65,103.57-39.63,12.78-36.46-.63-57.5-27-71.22C399.38,298.2,413.83,285.58,417.68,259.51Zm-67.09,94.08c-9.07,36.46-70.47,16.76-90.38,11.81l16.13-64.64C296.25,305.73,360.08,315.57,350.59,353.59Zm9.09-94.6c-8.28,33.17-59.39,16.32-76,12.18l14.62-58.63C314.91,216.67,368.3,224.38,359.68,259Z"/></svg>