<?xml version="1.0" encoding="utf-8"?>
<!-- Generator: Adobe Illustrator 22.1.0, SVG Export Plug-In . SVG Version: 6.00 Build 0)  -->
<svg version="1.1" id="Layer_1" xmlns="http://www.w3.org/2000/svg" xmlns:xlink="http://www.w3.org/1999/xlink" x="0px" y="0px"
	 viewBox="0 0 599.9 595.3" style="enable-background:new 0 0 599.9 595.3;" xml:space="preserve">
<style type="text/css">
	.st0{fill:#F7931A;}
	.st1{fill:#FFFFFF;}
</style>
<title>Artboard 2</title>
<path class="st0" d="M563.9,363.5c-36.4,145.9-184.2,234.7-330.1,198.3S-0.9,377.7,35.5,231.8S219.6-2.9,365.5,33.4
	S600.2,217.6,563.9,363.5z"/>
<path class="st1" d="M427.3,256.9c5.7-38.3-23.5-58.9-63.4-72.7l12.9-51.9l-31.6-7.9L332.6,175c-8.3-2.1-16.9-4-25.3-6l12.7-50.9
	l-31.6-7.9l-12.9,51.9c-6.9-1.6-13.6-3.1-20.2-4.7v-0.2l-43.6-10.9l-8.4,33.8c0,0,23.5,5.4,23,5.7c12.8,3.2,15.1,11.7,14.7,18.4
	l-14.8,59.2c1.1,0.3,2.2,0.7,3.3,1.1l-3.3-0.8l-20.7,82.9c-1.6,3.9-5.5,9.7-14.5,7.5c0.3,0.5-23-5.7-23-5.7l-15.7,36l41.2,10.3
	c7.7,1.9,15.1,3.9,22.5,5.8l-13.1,52.5l31.6,7.8l12.9-52c8.6,2.3,17,4.5,25.2,6.6l-12.9,51.7l31.6,7.9l13.1-52.4
	c53.9,10.2,94.5,6.1,111.5-42.7c13.8-39.3-0.7-61.9-29.1-76.7C407.6,298.5,423.1,284.9,427.3,256.9z M355,358.2
	c-9.8,39.3-75.9,18-97.3,12.7l17.4-69.6C296.5,306.6,365.3,317.2,355,358.2L355,358.2z M364.8,256.3c-8.9,35.7-63.9,17.6-81.8,13.1
	l15.7-63.1C316.6,210.8,374.1,219.1,364.8,256.3L364.8,256.3z"/>
</svg>
