<?xml version="1.0" encoding="utf-8"?>
<!-- Generator: Adobe Illustrator 22.1.0, SVG Export Plug-In . SVG Version: 6.00 Build 0)  -->
<svg version="1.1" id="Слой_1" xmlns="http://www.w3.org/2000/svg" xmlns:xlink="http://www.w3.org/1999/xlink" x="0px" y="0px"
	 viewBox="0 0 20 20" style="enable-background:new 0 0 20 20;" xml:space="preserve">
<style type="text/css">
	.st0{fill:#0BA9D7;}
</style>
<g>
	<g>
		<path class="st0" d="M10,0C4.5,0,0,4.5,0,10s4.5,10,10,10s10-4.5,10-10S15.5,0,10,0z M10,18.8c-4.8,0-8.8-3.9-8.8-8.8
			s4-8.7,8.8-8.7s8.8,3.9,8.8,8.8S14.8,18.8,10,18.8z M11.7,12.7L9,10l2.7-2.7c0.1-0.2,0.1-0.4,0-0.6c-0.2-0.3-0.5-0.4-0.8-0.3l-3,3
			c-0.1,0-0.1,0.1-0.1,0.1c-0.2,0.3-0.2,0.6,0,0.9l0.1,0.1l3,3c0.1,0.1,0.2,0.2,0.3,0.3c0.3,0.2,0.7,0,0.8-0.3
			C12.1,13.3,12,12.9,11.7,12.7z"/>
	</g>
</g>
</svg>
