<?xml version="1.0" encoding="utf-8"?>
<!-- Generator: Adobe Illustrator 22.1.0, SVG Export Plug-In . SVG Version: 6.00 Build 0)  -->
<svg version="1.1" id="Слой_1" xmlns="http://www.w3.org/2000/svg" xmlns:xlink="http://www.w3.org/1999/xlink" x="0px" y="0px"
	 viewBox="0 0 20 20" style="enable-background:new 0 0 20 20;" xml:space="preserve">
<style type="text/css">
	.st0{fill:#0BA9D7;}
</style>
<g>
	<g>
		<path class="st0" d="M10,0C4.5,0,0,4.5,0,10s4.5,10,10,10s10-4.5,10-10S15.5,0,10,0z M10,18.8c-4.8,0-8.8-3.9-8.8-8.8
			s4-8.7,8.8-8.7s8.8,3.9,8.8,8.8S14.8,18.8,10,18.8z M12.2,9.5l-3-3c-0.3-0.2-0.7,0-0.8,0.3C8.3,7,8.3,7.2,8.4,7.4L11,10l-2.7,2.7
			C8,12.9,7.9,13.2,8,13.5c0.2,0.3,0.5,0.4,0.8,0.3c0.1-0.1,0.2-0.2,0.3-0.3l3-3c0.1,0,0.1-0.1,0.1-0.1C12.4,10.1,12.4,9.8,12.2,9.5
			C12.3,9.5,12.2,9.5,12.2,9.5z"/>
	</g>
</g>
</svg>
