<?xml version="1.0" encoding="utf-8"?>
<!-- Generator: Adobe Illustrator 22.1.0, SVG Export Plug-In . SVG Version: 6.00 Build 0)  -->
<svg version="1.1" id="Слой_1" xmlns="http://www.w3.org/2000/svg" xmlns:xlink="http://www.w3.org/1999/xlink" x="0px" y="0px"
	 viewBox="0 0 20 20" style="enable-background:new 0 0 20 20;" xml:space="preserve">
<style type="text/css">
	.st0{fill:#0BA9D7;}
</style>
<path class="st0" d="M13.8,11.6H6.3c-0.3,0-0.6,0.3-0.6,0.6s0.3,0.6,0.6,0.6h7.5c0.3,0,0.6-0.3,0.6-0.6
	C14.4,11.9,14.1,11.6,13.8,11.6z M14.4,8L14.4,8c0-0.2,0-0.3,0-0.4s-0.1-0.1-0.1-0.2c-0.1-0.1-0.3-0.2-0.4-0.2H6.3
	C6,7.2,5.7,7.5,5.7,7.8c0,0.3,0.3,0.6,0.6,0.6h7.5c0.1,0,0.2,0,0.3-0.1l0.1-0.1C14.2,8.2,14.3,8.2,14.4,8L14.4,8
	C14.3,8.2,14.3,8.1,14.4,8C14.3,8,14.4,8,14.4,8z M13.8,11.6H6.3c-0.3,0-0.6,0.3-0.6,0.6s0.3,0.6,0.6,0.6h7.5c0.3,0,0.6-0.3,0.6-0.6
	C14.4,11.9,14.1,11.6,13.8,11.6z M6.3,8.5h7.5c0.1,0,0.2,0,0.3-0.1l0.1-0.1c0,0,0.1,0,0.1-0.1l0,0c0.1-0.1,0.1-0.2,0.1-0.3l0,0V7.8
	c0-0.1,0-0.2-0.1-0.3c0-0.1-0.1-0.1-0.1-0.2c-0.1-0.1-0.3-0.2-0.4-0.2H6.3C6,7.1,5.7,7.4,5.7,7.7C5.6,8.3,5.9,8.5,6.3,8.5z M10,0
	C4.5,0,0,4.5,0,10s4.5,10,10,10s10-4.5,10-10S15.5,0,10,0z M10,18.8c-4.8,0-8.8-3.9-8.8-8.8c0-4.8,3.9-8.8,8.8-8.8s8.8,3.9,8.8,8.8
	C18.8,14.8,14.8,18.8,10,18.8z M14.2,7.5c-0.1-0.1-0.3-0.2-0.4-0.2H6.3C6,7.3,5.7,7.6,5.7,7.9S6,8.5,6.3,8.5h7.5
	c0.1,0,0.2,0,0.3-0.1l0.1-0.1c0,0,0.1,0,0.1-0.1l0,0c0.1-0.1,0.1-0.2,0.1-0.3l0,0V7.8c0-0.1,0-0.2-0.1-0.3
	C14.3,7.6,14.3,7.5,14.2,7.5z M13.8,11.6H6.3c-0.3,0-0.6,0.3-0.6,0.6s0.3,0.6,0.6,0.6h7.5c0.3,0,0.6-0.3,0.6-0.6
	C14.4,11.9,14.1,11.6,13.8,11.6z"/>
<path class="st0" d="M10,11.6h0.9c0,0-0.1,0.1-0.2,0.1C10.5,11.9,10.2,11.8,10,11.6z"/>
<path class="st0" d="M14.2,8.3l-0.1,0.1l0,0c-0.1,0-0.2,0.1-0.3,0.1h-1.5l0.6-0.6l-2.7-2.7c-0.1-0.2-0.1-0.4,0-0.6
	c0.2-0.3,0.5-0.4,0.8-0.3l3,3l0.1,0.1c0.1,0.1,0.1,0.1,0.1,0.2C14.4,7.9,14.4,8.2,14.2,8.3z"/>
<path class="st0" d="M5.8,11.8l0.1-0.1l0,0c0.1,0,0.2-0.1,0.3-0.1h1.5l-0.6,0.6L9.8,15c0.1,0.2,0.1,0.4,0,0.6
	C9.7,15.9,9.3,16,9,15.9l-3-3l-0.1-0.1c-0.1-0.1-0.1-0.1-0.1-0.2C5.6,12.3,5.6,12,5.8,11.8z"/>
</svg>
