<?xml version="1.0" encoding="utf-8"?>
<!-- Generator: Adobe Illustrator 22.0.0, SVG Export Plug-In . SVG Version: 6.00 Build 0)  -->
<svg version="1.1" id="Layer_1" xmlns="http://www.w3.org/2000/svg" xmlns:xlink="http://www.w3.org/1999/xlink" x="0px" y="0px"
	 viewBox="0 0 500 500" style="enable-background:new 0 0 500 500;" xml:space="preserve">
<style type="text/css">
	.st0{fill:#0ba9d7;}
	.st1{fill:#BDC3C7;}
	.st2{fill:#94A5A6;}
	.st3{fill:#ECF0F1;}
	.st4{fill:#32485D;}
	.st5{fill:#2A3E4E;}
</style>
<g>
	<circle class="st0" cx="250" cy="250" r="217.6"/>
	<path class="st1" d="M370.7,349c0,5-4,9-9,9H144.2c-5,0-9-4-9-9V131.5c0-5,4-9,9-9h217.5c5,0,9,4,9,9V349z"/>
	<path class="st2" d="M153.6,131.1c-4.9,0-9,4-9,9v199.3c0,4.9,4,9,9,9h199.3c4.9,0,9-4,9-9V140c0-4.9-4-9-9-9H153.6V131.1z
		 M357.4,334.8c0,4.9-4,9-9,9H158.1c-4.9,0-9-4-9-9V144.5c0-4.9,4-9,9-9h190.3c4.9,0,9,4,9,9L357.4,334.8L357.4,334.8z"/>
	<path class="st3" d="M382.6,196.8c0,5-4,9-9,9h-22c-5,0-9-4-9-9v-19.4c0-5,4-9,9-9h22c5,0,9,4,9,9V196.8z"/>
	<path class="st3" d="M382.6,302.2c0,5-4,9-9,9h-22c-5,0-9-4-9-9v-19.4c0-5,4-9,9-9h22c5,0,9,4,9,9V302.2z"/>
	<rect x="150.6" y="357.9" class="st4" width="44.2" height="20.4"/>
	<rect x="150.6" y="358.8" class="st5" width="44.2" height="8.5"/>
	<rect x="312" y="357.9" class="st4" width="44.2" height="20.4"/>
	<rect x="312" y="358.8" class="st5" width="44.2" height="8.5"/>
	<g>
		<path class="st1" d="M356.8,178.1c0,2.4-1.9,4.3-4.3,4.3s-4.3-1.9-4.3-4.3c0-2.4,1.9-4.3,4.3-4.3
			C354.9,173.9,356.8,175.8,356.8,178.1z"/>
		<path class="st1" d="M356.8,196.1c0,2.4-1.9,4.3-4.3,4.3s-4.3-1.9-4.3-4.3c0-2.4,1.9-4.3,4.3-4.3S356.8,193.7,356.8,196.1z"/>
		<path class="st1" d="M376.9,178.1c0,2.4-1.9,4.3-4.3,4.3s-4.3-1.9-4.3-4.3c0-2.4,1.9-4.3,4.3-4.3
			C375,173.9,376.9,175.8,376.9,178.1z"/>
		<path class="st1" d="M376.9,196.1c0,2.4-1.9,4.3-4.3,4.3s-4.3-1.9-4.3-4.3c0-2.4,1.9-4.3,4.3-4.3S376.9,193.7,376.9,196.1z"/>
	</g>
	<g>
		<path class="st1" d="M356.8,283.5c0,2.4-1.9,4.3-4.3,4.3s-4.3-1.9-4.3-4.3s1.9-4.3,4.3-4.3C354.9,279.3,356.8,281.2,356.8,283.5z"
			/>
		<path class="st1" d="M356.8,301.5c0,2.4-1.9,4.3-4.3,4.3s-4.3-1.9-4.3-4.3s1.9-4.3,4.3-4.3S356.8,299.1,356.8,301.5z"/>
		<path class="st1" d="M376.9,283.5c0,2.4-1.9,4.3-4.3,4.3s-4.3-1.9-4.3-4.3s1.9-4.3,4.3-4.3C375,279.3,376.9,281.2,376.9,283.5z"/>
		<path class="st1" d="M376.9,301.5c0,2.4-1.9,4.3-4.3,4.3s-4.3-1.9-4.3-4.3s1.9-4.3,4.3-4.3S376.9,299.1,376.9,301.5z"/>
	</g>
	<ellipse class="st2" cx="253.2" cy="243.9" rx="56.3" ry="56.3"/>
	<circle class="st1" cx="253.3" cy="243.9" r="50"/>
	<g>
		<path class="st3" d="M261.8,206.3c0,5.5-3.8,10-8.5,10c-4.7,0-8.5-4.5-8.5-10V177c0-5.5,3.8-10,8.5-10c4.7,0,8.5,4.5,8.5,10V206.3
			z"/>
	</g>
	<g>
		<path class="st3" d="M244.7,273c0-5.5,3.8-10,8.5-10s8.5,4.5,8.5,10v29.4c0,5.5-3.8,10-8.5,10c-4.7,0-8.5-4.5-8.5-10L244.7,273
			L244.7,273z"/>
	</g>
	<path class="st3" d="M261,207.4c0,4.9-3.8,9-8.5,9c-4.7,0-8.5-4-8.5-9V176c0-4.9,3.8-9,8.5-9c4.7,0,8.5,4,8.5,9V207.4z"/>
	<path class="st3" d="M244.1,272c0-4.9,3.8-9,8.5-9c4.7,0,8.5,4,8.5,9v31.4c0,4.9-3.8,9-8.5,9c-4.7,0-8.5-4-8.5-9V272z"/>
	<path class="st3" d="M285.6,249.2c-4.9,0-9-3.8-9-8.5s4-8.5,9-8.5H317c4.9,0,9,3.8,9,8.5s-4,8.5-9,8.5H285.6z"/>
	<path class="st3" d="M221,232.2c4.9,0,9,3.8,9,8.5s-4,8.5-9,8.5h-31.4c-4.9,0-9-3.8-9-8.5s4-8.5,9-8.5H221z"/>
	<path class="st2" d="M252.5,216.3c4.7,0,8.5-4,8.5-9v-10.9c-2.5-0.5-5.4-0.7-8.3-0.7c-3,0-6.2,0.3-8.7,0.8v10.9
		C244.1,212.3,247.9,216.3,252.5,216.3z"/>
	<path class="st2" d="M252.5,263c-4.7,0-8.5,4-8.5,9v19.4c2.5,0.5,5.7,0.8,8.7,0.8c2.8,0,5.7-0.3,8.3-0.7V272
		C261,267.1,257.2,263,252.5,263z"/>
	<path class="st2" d="M299.9,232.2h-14.3c-4.9,0-9,3.8-9,8.5s4,8.5,9,8.5h15.7c0.2-1.7,0.2-3.1,0.2-4.7
		C301.5,240.2,301,235.6,299.9,232.2z"/>
	<path class="st2" d="M229.9,240.7c0-4.7-4-8.5-9-8.5h-14.3c-1,3.4-1.6,8-1.6,12.3c0,1.6,0.1,3,0.2,4.7H221
		C225.9,249.2,229.9,245.3,229.9,240.7z"/>
	<circle class="st3" cx="253.3" cy="243.9" r="43.8"/>
	<path class="st1" d="M290.3,243.9c0,20.4-16.6,37-37,37s-37-16.6-37-37s16.6-37,37-37C273.7,206.9,290.3,223.5,290.3,243.9z"/>
	
		<ellipse transform="matrix(0.1602 -0.9871 0.9871 0.1602 -28.0844 454.8141)" class="st2" cx="253.2" cy="243.9" rx="26.7" ry="26.7"/>
	
		<ellipse transform="matrix(0.2298 -0.9732 0.9732 0.2298 -42.3588 434.338)" class="st3" cx="253.2" cy="243.9" rx="22.2" ry="22.2"/>
</g>
</svg>
