<?xml version="1.0" encoding="utf-8"?>
<!-- Generator: Adobe Illustrator 22.1.0, SVG Export Plug-In . SVG Version: 6.00 Build 0)  -->
<svg version="1.1" id="Layer_1" xmlns="http://www.w3.org/2000/svg" xmlns:xlink="http://www.w3.org/1999/xlink" x="0px" y="0px"
	 viewBox="0 0 1390.2 1018" style="enable-background:new 0 0 1390.2 1018;" xml:space="preserve">
<style type="text/css">
	.st0{fill:#FFFFFF;}
	.st1{fill:#0BA9D7;}
	.st2{fill:#1AC1E8;}
	.st3{fill:#09A2C6;}
</style>
<g>
	<g>
		<path class="st0" d="M28.2,653.1h63.6l77.8,195.3l77.8-195.3H311l-141.4,326L28.2,653.1z"/>
		<path class="st0" d="M409.6,951.2h-0.8c-12.6,16.8-35.5,27.5-60.8,27.5c-60.8,0-95.9-49.7-95.9-97.4c0-45.5,37.8-97.4,97.8-97.4
			c27.5,0,48.5,11.8,58.8,27.5h0.8v-22.5h39.7v184.9h-39.7L409.6,951.2L409.6,951.2z M353,941.2c31.3,0,58.1-26.7,58.1-60
			s-26.7-60-58.1-60c-32.1,0-58.8,26.7-58.8,60S320.9,941.2,353,941.2z"/>
		<path class="st0" d="M490,896.5h-26v-37.4h26V733.7h39.7V859H550l48.5-70.3h48.1l-62.7,87.1l65.7,97.8h-47l-48.8-77.1h-24.1v77.2
			H490V896.5z"/>
		<path class="st0" d="M799.5,951.2h-0.7c-12.6,16.8-35.5,27.5-60.8,27.5c-60.8,0-95.9-49.7-95.9-97.4c0-45.5,37.8-97.4,97.8-97.4
			c27.5,0,48.5,11.8,58.8,27.5h0.8v-22.5h39.7v184.9h-39.7L799.5,951.2L799.5,951.2z M743,941.2c31.3,0,58.1-26.7,58.1-60
			s-26.7-60-58.1-60c-32.1,0-58.8,26.7-58.8,60S710.9,941.2,743,941.2z"/>
	</g>
	<path class="st0" d="M1220.4,797.9c0-7.8-6.4-14.1-14.1-14.1h-322c-7.8,0-14.1,6.4-14.1,14.1v15.7h350.2L1220.4,797.9L1220.4,797.9
		z"/>
	<g>
		<path class="st0" d="M1247,894.1h58.9c1.6,0,3-1.3,3-3v-4c0-1.6-1.3-3-3-3H1247c-1.6,0-3,1.3-3,3v4
			C1244.1,892.8,1245.4,894.1,1247,894.1z"/>
		<path class="st0" d="M1247,955.9h58.9c1.6,0,3-1.3,3-3v-4c0-1.6-1.3-3-3-3H1247c-1.6,0-3,1.3-3,3v4
			C1244.1,954.6,1245.4,955.9,1247,955.9z"/>
		<path class="st0" d="M1247,924.3h92.1c1.6,0,3-1.3,3-3v-4c0-1.6-1.3-3-3-3H1247c-1.6,0-3,1.3-3,3v4
			C1244.1,922.9,1245.4,924.3,1247,924.3z"/>
	</g>
	<g>
		<path class="st1" d="M1053.1,896.3c-11.3,0-19.5,8.5-19.5,20.9c0,12.5,8.2,20.9,19.5,20.9c10.4,0,19.8-8.4,19.8-20.9
			C1072.9,904.8,1063.5,896.3,1053.1,896.3z"/>
		<path class="st1" d="M870.2,825.9v73.4h39.3v-56.6h55.9c25.6,0,41.6,15.7,41.6,39.1c0,23.9-16.6,39.6-42.8,39.6h-26.7v34.7h-27.9
			V920h-39.3v42.7c0,7.8,6.4,14.1,14.1,14.1h246l9.5-22l-33.4-78.1h27.7l19.1,47.1l20.4-47.1h27.7l-43.2,100.2h48.2
			c7.8,0,14.1-6.4,14.1-14.1V825.9H870.2z M1098.6,957.5h-25.7v-6.4c-6.3,5.6-14.6,8.8-25.1,8.8c-21.4,0-39.4-17.2-39.4-42.8
			c0-25.4,18-42.8,39.4-42.8c10.5,0,18.8,3.2,25.1,8.8v-6.4h25.7V957.5z"/>
		<path class="st1" d="M962.1,898c10.8,0,17.4-6.3,17.4-15.9c0-9.1-6.6-15.6-17.4-15.6h-24.7V898H962.1z"/>
	</g>
</g>
<g>
	<polygon class="st2" points="479.3,315.2 592.6,117.5 820.9,117.5 707.6,315.2 	"/>
	<polygon class="st1" points="479.3,351.9 591.6,541.5 820.9,541.5 708.7,351.9 	"/>
	<polygon class="st3" points="878,193 847.4,139.9 737.4,330.9 847.4,525.2 876.2,474.3 957.4,330.9 	"/>
	<ellipse class="st1" cx="865" cy="593.9" rx="32.6" ry="32.6"/>
	<ellipse class="st1" cx="405.6" cy="332.5" rx="32.6" ry="32.6"/>
	<circle class="st1" cx="873.3" cy="76.6" r="32.6"/>
	<g>
		<path class="st1" d="M711.1,616.3c-33.2,0-65.9-5.6-96.9-16.8c-30-10.7-57.8-26.5-82.6-46.5c-49.9-40.2-85.2-96.5-99.5-158.5
			c-0.3-1.6,0.7-3.3,2.3-3.7c1.6-0.3,3.3,0.7,3.7,2.3c29.4,127.9,141.7,217,273,217c28.4,0,56.8-4.3,83.9-12.8
			c1.6-0.5,3.4,0.3,3.8,2c0.5,1.6-0.3,3.4-2,3.8C769.1,611.9,740.3,616.3,711.1,616.3z"/>
	</g>
	<g>
		<path class="st1" d="M897.7,546.2c-0.8,0-1.7-0.3-2.3-1c-1.2-1.3-0.9-3.3,0.2-4.3c60.7-53.3,95.6-130.2,95.6-210.8
			c0-77.7-31.1-149.9-87.5-203.4c-1.3-1.2-1.3-3.1-0.1-4.3c1.2-1.3,3.1-1.3,4.3-0.1c28,26.5,49.9,57.7,65.4,92.8
			c16,36.4,24,75.1,24,115c0,42-8.9,82.4-26.3,120.2c-16.9,36.5-40.9,68.5-71.3,95.2C899.1,545.9,898.4,546.2,897.7,546.2z"/>
	</g>
	<g>
		<path class="st1" d="M435.3,269c-0.2,0-0.5,0-0.7-0.1c-1.6-0.3-2.7-2-2.3-3.7c14.3-62,49.7-118.3,99.5-158.4
			c24.9-20,52.7-35.7,82.6-46.4c31-11.1,63.5-16.8,96.7-16.8c34.7,0,68.6,6.2,100.8,18.3c1.6,0.6,2.3,2.3,1.7,4s-2.3,2.3-4,1.7
			c-31.5-11.9-64.7-17.8-98.7-17.8c-131.2,0-243.5,89.2-273,216.9C437.9,268.1,436.7,269,435.3,269z"/>
	</g>
</g>
</svg>
