<?xml version="1.0" encoding="utf-8"?>
<!-- Generator: Adobe Illustrator 22.1.0, SVG Export Plug-In . SVG Version: 6.00 Build 0)  -->
<svg version="1.1" id="Layer_1" xmlns="http://www.w3.org/2000/svg" xmlns:xlink="http://www.w3.org/1999/xlink" x="0px" y="0px"
	 viewBox="0 0 1390.2 1018" style="enable-background:new 0 0 1390.2 1018;" xml:space="preserve">
<style type="text/css">
	.st0{fill:#28D16C;}
	.st1{fill:#18BA60;}
	.st2{fill:#10A04A;}
	.st3{fill:#20C462;}
	.st4{fill:#FFFFFF;}
</style>
<g>
	<polygon class="st0" points="426.3,315.2 540.8,115.2 771.7,115.2 657.2,315.2 	"/>
	<polygon class="st1" points="426.3,352.3 539.8,544 771.7,544 658.2,352.3 	"/>
	<polygon class="st2" points="829.4,191.6 798.4,137.9 687.1,331 798.4,527.5 827.5,476 909.7,331 	"/>
	<ellipse class="st3" cx="816.2" cy="596.9" rx="33" ry="33"/>
	
		<ellipse transform="matrix(6.652038e-02 -0.9978 0.9978 6.652038e-02 -3.6439 661.5961)" class="st3" cx="351.8" cy="332.7" rx="33" ry="33"/>
	<circle class="st3" cx="824.6" cy="74" r="33"/>
	<g>
		<path class="st3" d="M660.7,619.6c-33.6,0-66.5-5.7-97.9-17c-30.3-10.9-58.4-26.7-83.6-47c-50.4-40.6-86.1-97.6-100.6-160.3
			c-0.4-1.7,0.7-3.3,2.3-3.7c1.7-0.4,3.3,0.7,3.7,2.3c29.8,129.2,143.3,219.5,276,219.5c28.8,0,57.3-4.4,84.8-13
			c1.6-0.5,3.4,0.4,3.9,2c0.5,1.6-0.4,3.4-2,3.9C719.3,615.2,690.1,619.6,660.7,619.6z"/>
	</g>
	<g>
		<path class="st3" d="M849.3,548.7c-0.9,0-1.7-0.4-2.3-1.1c-1.1-1.3-1-3.2,0.3-4.4c61.4-53.9,96.6-131.6,96.6-213.2
			c0-78.6-31.4-151.6-88.4-205.6c-1.2-1.2-1.3-3.1-0.1-4.4c1.2-1.2,3.1-1.3,4.4-0.1c28.3,26.8,50.5,58.3,66.1,93.8
			c16.1,36.7,24.3,75.9,24.3,116.3c0,42.4-9,83.3-26.7,121.6c-17.1,36.9-41.3,69.3-72.1,96.3C850.7,548.5,850,548.7,849.3,548.7z"/>
	</g>
	<g>
		<path class="st3" d="M381.7,268.5c-0.2,0-0.5,0-0.7-0.1c-1.7-0.4-2.7-2-2.3-3.7c14.4-62.7,50.2-119.6,100.6-160.2
			c25.2-20.3,53.3-36.1,83.6-46.9c31.3-11.3,64.2-17,97.8-17c35.1,0,69.4,6.2,101.9,18.4c1.6,0.6,2.4,2.4,1.8,4
			c-0.6,1.6-2.4,2.4-4,1.8c-31.8-12-65.4-18.1-99.8-18.1c-132.7,0-246.2,90.2-275.9,219.3C384.4,267.6,383.1,268.5,381.7,268.5z"/>
	</g>
</g>
<g>
	<path class="st4" d="M39.4,653.1H103l77.8,195.3l77.8-195.3h63.6L180.8,979.1L39.4,653.1z"/>
	<path class="st4" d="M420.8,951.2H420c-12.6,16.8-35.5,27.5-60.8,27.5c-60.8,0-95.9-49.7-95.9-97.4c0-45.5,37.8-97.4,97.8-97.4
		c27.5,0,48.5,11.8,58.8,27.5h0.8v-22.5h39.7v184.9h-39.7V951.2z M364.2,941.2c31.3,0,58.1-26.7,58.1-60s-26.7-60-58.1-60
		c-32.1,0-58.8,26.7-58.8,60S332.1,941.2,364.2,941.2z"/>
	<path class="st4" d="M501.2,896.5h-26v-37.4h26V733.7h39.7v125.3h20.3l48.5-70.3h48.1l-62.7,87.1l65.7,97.8h-47L565,896.5h-24.1
		v77.2h-39.7V896.5z"/>
	<path class="st4" d="M810.7,951.2H810c-12.6,16.8-35.5,27.5-60.8,27.5c-60.8,0-95.9-49.7-95.9-97.4c0-45.5,37.8-97.4,97.8-97.4
		c27.5,0,48.5,11.8,58.8,27.5h0.8v-22.5h39.7v184.9h-39.7V951.2z M754.2,941.2c31.3,0,58.1-26.7,58.1-60s-26.7-60-58.1-60
		c-32.1,0-58.8,26.7-58.8,60S722.1,941.2,754.2,941.2z"/>
</g>
<path class="st4" d="M1231.6,797.9c0-7.8-6.4-14.1-14.1-14.1h-322c-7.8,0-14.1,6.4-14.1,14.1v15.7l350.2,0V797.9z"/>
<g>
	<path class="st4" d="M1258.2,894.1h58.9c1.6,0,3-1.3,3-3v-4c0-1.6-1.3-3-3-3h-58.9c-1.6,0-3,1.3-3,3v4
		C1255.3,892.8,1256.6,894.1,1258.2,894.1z"/>
	<path class="st4" d="M1258.2,955.9h58.9c1.6,0,3-1.3,3-3v-4c0-1.6-1.3-3-3-3h-58.9c-1.6,0-3,1.3-3,3v4
		C1255.3,954.6,1256.6,955.9,1258.2,955.9z"/>
	<path class="st4" d="M1258.2,924.3h92.1c1.6,0,3-1.3,3-3v-4c0-1.6-1.3-3-3-3h-92.1c-1.6,0-3,1.3-3,3v4
		C1255.3,922.9,1256.6,924.3,1258.2,924.3z"/>
</g>
<g>
	<path class="st0" d="M1064.3,896.3c-11.3,0-19.5,8.5-19.5,20.9c0,12.5,8.2,20.9,19.5,20.9c10.4,0,19.8-8.4,19.8-20.9
		C1084.1,904.8,1074.7,896.3,1064.3,896.3z"/>
	<path class="st0" d="M881.4,825.9v73.4l39.3,0v-56.6h55.9c25.6,0,41.6,15.7,41.6,39.1c0,23.9-16.6,39.6-42.8,39.6h-26.7l0,34.7
		h-27.9V920l-39.3,0v42.7c0,7.8,6.4,14.1,14.1,14.1h246l9.5-22l-33.4-78.1h27.7l19.1,47.1l20.4-47.1h27.7l-43.2,100.2h48.2
		c7.8,0,14.1-6.4,14.1-14.1V825.9L881.4,825.9z M1109.8,957.5h-25.7l0-6.4c-6.3,5.6-14.6,8.8-25.1,8.8c-21.4,0-39.4-17.2-39.4-42.8
		c0-25.4,18-42.8,39.4-42.8c10.5,0,18.8,3.2,25.1,8.8l0-6.4h25.7L1109.8,957.5z"/>
	<path class="st0" d="M973.3,898c10.8,0,17.4-6.3,17.4-15.9c0-9.1-6.6-15.6-17.4-15.6h-24.7l0,31.5H973.3z"/>
</g>
</svg>
