<?xml version="1.0" encoding="utf-8"?>
<!-- Generator: Adobe Illustrator 22.1.0, SVG Export Plug-In . SVG Version: 6.00 Build 0)  -->
<svg version="1.1" id="Layer_1" xmlns="http://www.w3.org/2000/svg" xmlns:xlink="http://www.w3.org/1999/xlink" x="0px" y="0px"
	 viewBox="0 0 500 500" style="enable-background:new 0 0 500 500;" xml:space="preserve">
<style type="text/css">
	.st0{fill:#BDC3C7;}
	.st1{fill:#94A5A6;}
	.st2{fill:#ECF0F1;}
	.st3{fill:#32485D;}
	.st4{fill:#2A3E4E;}
</style>
<g>
	<path class="st0" d="M444.6,414.1c0,8.3-6.6,14.9-14.9,14.9H68.4c-8.3,0-14.9-6.6-14.9-14.9V52.9c0-8.3,6.6-14.9,14.9-14.9h361.2
		c8.3,0,14.9,6.6,14.9,14.9V414.1z"/>
	<path class="st1" d="M84,52.3c-8.1,0-14.9,6.6-14.9,14.9v331c0,8.1,6.6,14.9,14.9,14.9h331c8.1,0,14.9-6.6,14.9-14.9V67.1
		c0-8.1-6.6-14.9-14.9-14.9H84V52.3z M422.5,390.6c0,8.1-6.6,14.9-14.9,14.9h-316c-8.1,0-14.9-6.6-14.9-14.9v-316
		c0-8.1,6.6-14.9,14.9-14.9h316c8.1,0,14.9,6.6,14.9,14.9L422.5,390.6L422.5,390.6z"/>
	<path class="st2" d="M464.3,161.4c0,8.3-6.6,14.9-14.9,14.9h-36.5c-8.3,0-14.9-6.6-14.9-14.9v-32.2c0-8.3,6.6-14.9,14.9-14.9h36.5
		c8.3,0,14.9,6.6,14.9,14.9V161.4z"/>
	<path class="st2" d="M464.3,336.4c0,8.3-6.6,14.9-14.9,14.9h-36.5c-8.3,0-14.9-6.6-14.9-14.9v-32.2c0-8.3,6.6-14.9,14.9-14.9h36.5
		c8.3,0,14.9,6.6,14.9,14.9V336.4z"/>
	<rect x="79" y="428.9" class="st3" width="73.4" height="33.9"/>
	<rect x="79" y="430.4" class="st4" width="73.4" height="14.1"/>
	<rect x="347.1" y="428.9" class="st3" width="73.4" height="33.9"/>
	<rect x="347.1" y="430.4" class="st4" width="73.4" height="14.1"/>
	<g>
		<path class="st0" d="M421.5,130.3c0,4-3.2,7.1-7.1,7.1c-4,0-7.1-3.2-7.1-7.1c0-4,3.2-7.1,7.1-7.1
			C418.3,123.4,421.5,126.5,421.5,130.3z"/>
		<path class="st0" d="M421.5,160.2c0,4-3.2,7.1-7.1,7.1c-4,0-7.1-3.2-7.1-7.1c0-4,3.2-7.1,7.1-7.1
			C418.3,153.1,421.5,156.2,421.5,160.2z"/>
		<path class="st0" d="M454.9,130.3c0,4-3.2,7.1-7.1,7.1c-4,0-7.1-3.2-7.1-7.1c0-4,3.2-7.1,7.1-7.1
			C451.7,123.4,454.9,126.5,454.9,130.3z"/>
		<path class="st0" d="M454.9,160.2c0,4-3.2,7.1-7.1,7.1c-4,0-7.1-3.2-7.1-7.1c0-4,3.2-7.1,7.1-7.1
			C451.7,153.1,454.9,156.2,454.9,160.2z"/>
	</g>
	<g>
		<path class="st0" d="M421.5,305.4c0,4-3.2,7.1-7.1,7.1c-4,0-7.1-3.2-7.1-7.1s3.2-7.1,7.1-7.1C418.3,298.4,421.5,301.5,421.5,305.4
			z"/>
		<path class="st0" d="M421.5,335.3c0,4-3.2,7.1-7.1,7.1c-4,0-7.1-3.2-7.1-7.1c0-4,3.2-7.1,7.1-7.1
			C418.3,328.1,421.5,331.3,421.5,335.3z"/>
		<path class="st0" d="M454.9,305.4c0,4-3.2,7.1-7.1,7.1c-4,0-7.1-3.2-7.1-7.1s3.2-7.1,7.1-7.1C451.7,298.4,454.9,301.5,454.9,305.4
			z"/>
		<path class="st0" d="M454.9,335.3c0,4-3.2,7.1-7.1,7.1c-4,0-7.1-3.2-7.1-7.1c0-4,3.2-7.1,7.1-7.1
			C451.7,328.1,454.9,331.3,454.9,335.3z"/>
	</g>
	<ellipse class="st1" cx="249.4" cy="239.6" rx="93.5" ry="93.5"/>
	<circle class="st0" cx="249.6" cy="239.6" r="83"/>
	<g>
		<path class="st2" d="M263.7,177.2c0,9.1-6.3,16.6-14.1,16.6c-7.8,0-14.1-7.5-14.1-16.6v-48.7c0-9.1,6.3-16.6,14.1-16.6
			c7.8,0,14.1,7.5,14.1,16.6V177.2z"/>
	</g>
	<g>
		<path class="st2" d="M235.3,287.9c0-9.1,6.3-16.6,14.1-16.6c7.8,0,14.1,7.5,14.1,16.6v48.8c0,9.1-6.3,16.6-14.1,16.6
			c-7.8,0-14.1-7.5-14.1-16.6L235.3,287.9L235.3,287.9z"/>
	</g>
	<path class="st2" d="M262.4,179c0,8.1-6.3,14.9-14.1,14.9c-7.8,0-14.1-6.6-14.1-14.9v-52.1c0-8.1,6.3-14.9,14.1-14.9
		c7.8,0,14.1,6.6,14.1,14.9V179z"/>
	<path class="st2" d="M234.3,286.3c0-8.1,6.3-14.9,14.1-14.9c7.8,0,14.1,6.6,14.1,14.9v52.1c0,8.1-6.3,14.9-14.1,14.9
		c-7.8,0-14.1-6.6-14.1-14.9V286.3z"/>
	<path class="st2" d="M303.2,248.4c-8.1,0-14.9-6.3-14.9-14.1c0-7.8,6.6-14.1,14.9-14.1h52.1c8.1,0,14.9,6.3,14.9,14.1
		c0,7.8-6.6,14.1-14.9,14.1H303.2z"/>
	<path class="st2" d="M196,220.2c8.1,0,14.9,6.3,14.9,14.1c0,7.8-6.6,14.1-14.9,14.1h-52.1c-8.1,0-14.9-6.3-14.9-14.1
		c0-7.8,6.6-14.1,14.9-14.1H196z"/>
	<path class="st1" d="M248.3,193.8c7.8,0,14.1-6.6,14.1-14.9v-18.1c-4.2-0.8-9-1.2-13.8-1.2c-5,0-10.3,0.5-14.4,1.3V179
		C234.3,187.1,240.6,193.8,248.3,193.8z"/>
	<path class="st1" d="M248.3,271.3c-7.8,0-14.1,6.6-14.1,14.9v32.2c4.2,0.8,9.5,1.3,14.4,1.3c4.6,0,9.5-0.5,13.8-1.2v-32.4
		C262.4,278.1,256.1,271.3,248.3,271.3z"/>
	<path class="st1" d="M327,220.2h-23.7c-8.1,0-14.9,6.3-14.9,14.1c0,7.8,6.6,14.1,14.9,14.1h26.1c0.3-2.8,0.3-5.1,0.3-7.8
		C329.6,233.5,328.8,225.8,327,220.2z"/>
	<path class="st1" d="M210.7,234.3c0-7.8-6.6-14.1-14.9-14.1H172c-1.7,5.6-2.7,13.3-2.7,20.4c0,2.7,0.2,5,0.3,7.8H196
		C204.1,248.4,210.7,241.9,210.7,234.3z"/>
	<circle class="st2" cx="249.6" cy="239.6" r="72.7"/>
	<path class="st0" d="M311,239.6c0,33.9-27.6,61.4-61.4,61.4s-61.4-27.6-61.4-61.4s27.6-61.4,61.4-61.4S311,205.7,311,239.6z"/>
	
		<ellipse transform="matrix(0.1602 -0.9871 0.9871 0.1602 -27.0783 447.5606)" class="st1" cx="249.5" cy="239.7" rx="44.3" ry="44.3"/>
	
		<ellipse transform="matrix(0.2298 -0.9732 0.9732 0.2298 -41.2098 427.3765)" class="st2" cx="249.4" cy="239.7" rx="36.9" ry="36.9"/>
</g>
</svg>
