<?xml version="1.0" encoding="utf-8"?>
<!-- Generator: Adobe Illustrator 22.1.0, SVG Export Plug-In . SVG Version: 6.00 Build 0)  -->
<svg version="1.1" id="Layer_1" xmlns="http://www.w3.org/2000/svg" xmlns:xlink="http://www.w3.org/1999/xlink" x="0px" y="0px"
	 viewBox="0 0 446 441" style="enable-background:new 0 0 446 441;" xml:space="preserve">
<style type="text/css">
	.st0{fill:#535353;}
	.st1{fill:none;stroke:#535353;stroke-width:16;stroke-miterlimit:10;}
</style>
<path class="st0" d="M117.8,360h209.9c2.2,0,4-1.8,4-4v-22.8c0-2.2-1.8-4-4-4H117.8c-2.2,0-4,1.8-4,4V356
	C113.8,358.2,115.6,360,117.8,360z"/>
<path class="st0" d="M237.1,133.6c0,1.8,0,4.8,0,6.6c0,49.8,0,99.7,0,149.5c0,10-3.1,13.2-13.2,13.2c-1.2,0-2.4,0-3.6,0
	c-9.8,0-13-3.1-13-12.8c0-50,0-100,0-150c0-1.8,0-3.6,0-6.5c-2,1.8-3.2,2.8-4.4,4c-21.1,21-42.2,42.1-63.3,63.1
	c-7.2,7.2-11.3,7.2-18.6,0c-1.2-1.2-2.5-2.4-3.6-3.6c-5.4-5.6-5.4-10.5,0.2-16.1c15.2-15.3,30.5-30.5,45.8-45.7
	c16-16,32-31.9,48-47.9c7.1-7,14.4-7,21.4,0c31,31,62.1,61.9,93.1,92.9c6.7,6.7,6.7,11.1-0.1,17.9c-10.6,10.7-13.1,10.8-23.7,0.1
	C281,176.7,237.1,133.6,237.1,133.6z"/>
<circle class="st1" cx="222.8" cy="219.6" r="198.8"/>
</svg>
