<?xml version="1.0" encoding="utf-8"?>
<!-- Generator: Adobe Illustrator 22.1.0, SVG Export Plug-In . SVG Version: 6.00 Build 0)  -->
<svg version="1.1" id="Layer_1" xmlns="http://www.w3.org/2000/svg" xmlns:xlink="http://www.w3.org/1999/xlink" x="0px" y="0px"
	 viewBox="0 0 550.2 546.3" style="enable-background:new 0 0 550.2 546.3;" xml:space="preserve">
<style type="text/css">
	.st0{fill:#535353;}
</style>
<path class="st0" d="M517.4,44.9L455,108.6l-7.5-6.8c-1.3-1.2-2.4-2.2-3.6-3.3c-2.2-2.1-4.2-3.8-6.1-5.6
	c-47.5-41.4-101.2-62.2-160-62.2c-17.3,0-35.1,1.8-53.3,5.4c-47.5,9.4-89.8,33.4-125.7,71.2c-20,21-35.5,44.9-46,71
	c-5.3,13.1,0.3,27.9,12.8,34.6c12.3,6.6,27.5,2.8,35.2-8.8c1.3-1.9,2.4-4.6,3.5-7.4c1-2.6,2.1-5.3,3.6-8
	c32-59.7,81.1-94.1,146-102.3c46.6-5.9,90.1,4.6,129.3,31.1c6.1,4.1,11.7,8.8,17.2,13.4c2.4,2,4.9,4.1,7.4,6.1l9.2,7.4l-65.6,64.5
	h165.9L517.4,44.9L517.4,44.9z"/>
<path class="st0" d="M454.8,436.4c15.3-16.6,28.5-36.5,42.7-64.6c3.8-7.4,4.5-15.6,2-23.1c-2.3-6.9-7.2-12.4-13.8-15.7
	c-6.8-3.3-14.4-3.7-21.4-1.2c-7.2,2.7-12.9,8.1-16.1,15.5c-10.2,23.6-25,44.6-44,62.5c-30.6,28.9-70.5,46.9-112.6,50.8
	c-5.8,0.5-11.7,0.8-17.5,0.8c-36.3,0-72.1-10.4-102.5-30.1c-6.9-4.5-13.4-9.7-19.6-14.7c-2.9-2.3-5.8-4.7-8.8-7l-9.6-7.4l65.6-64.1
	H33v163.5l63.3-63.4l7.4,6.3c0.3,0.2,0.5,0.4,0.7,0.6c0.5,0.4,1.1,0.9,1.7,1.5c58.1,54.9,127.3,77.2,205.5,66.3
	C366.8,505.4,414.9,479.6,454.8,436.4z"/>
</svg>
