<?xml version="1.0" encoding="utf-8"?>
<!-- Generator: Adobe Illustrator 22.1.0, SVG Export Plug-In . SVG Version: 6.00 Build 0)  -->
<svg version="1.1" id="Layer_1" xmlns="http://www.w3.org/2000/svg" xmlns:xlink="http://www.w3.org/1999/xlink" x="0px" y="0px"
	 viewBox="0 0 500 500" style="enable-background:new 0 0 500 500;" xml:space="preserve">
<style type="text/css">
	.st0{fill:#0BA9D7;}
	.st1{fill:#DBD5D5;}
	.st2{fill:#0C0A0A;}
	.st3{fill:#161313;}
	.st4{fill:#D1AB86;}
	.st5{fill:#FFE2C2;}
	.st6{fill:#FFF8F8;}
	.st7{fill:#333030;}
	.st8{fill:#6B4A3B;}
</style>
<g>
	<g>
		<path class="st0" d="M470.6,250c0,121.8-98.8,220.6-220.6,220.6S29.4,371.8,29.4,250S128.2,29.4,250,29.4S470.6,128.2,470.6,250z"
			/>
	</g>
	<g>
		<g>
			<g>
				<g>
					<g>
						<g>
							<polygon class="st1" points="143.3,274.1 98.3,273.4 93.2,274.8 91.4,275.8 91.9,277.1 105.9,319.8 109.9,331.3 133.1,331.3 
								135.3,320.6 147.5,277.3 148,275.5 							"/>
						</g>
					</g>
					<g>
						<g>
							<path class="st2" d="M91.9,277.1c-12.7,16.5-33.2,18.9-36.8,39l-1.2,15.2H110l-4.1-11.5L91.9,277.1z"/>
						</g>
					</g>
					<g>
						<g>
							<path class="st3" d="M133.1,331.3h54.1l-1.2-15.2c-2.8-13.6-18.2-20.2-38.6-38.8l-12.2,43.3L133.1,331.3z"/>
						</g>
					</g>
					<g>
						<g>
							<path class="st4" d="M134.6,253.4h-4.5h-23.6c-4.9,0-8.8,3.5-8.8,7.8v20c0,4.3,3.9,7.7,8.8,7.7h28.2c4.2,0,7.7-2.6,8.6-6.1
								c0.1,0,0.1,0,0.2-0.1v-1.6v-0.4v-19.6C143.4,256.9,139.5,253.4,134.6,253.4z"/>
						</g>
					</g>
					<g>
						<g>
							<path class="st5" d="M161.9,216.6c-1.1-0.3-2.4,0.4-3.6,2c0-0.8,0.1-1.5,0.1-2.3c0-25-16.9-45.3-37.8-45.3
								s-37.8,20.3-37.8,45.3c0,0.8,0,1.5,0,2.3c-1.2-1.6-2.5-2.4-3.6-2c-2.7,0.8-3.5,7.8-1.8,15.6s5.2,13.4,7.9,12.6
								c0.9-0.3,1.6-1.4,2.1-3c6.4,18.7,18.9,35.6,33.2,35.6s26.7-16.9,33.1-35.6c0.4,1.6,1.2,2.7,2.1,3c2.7,0.8,6.2-4.8,7.9-12.6
								C165.3,224.4,164.5,217.5,161.9,216.6z"/>
						</g>
					</g>
					<g>
						<g>
							<path class="st6" d="M97.4,275.2c0,0,0.7,7.1,13.6,10.9s4.3,12.8,4.3,12.8l-10.1,2.1l-5.9-11.5l-2.5-8.8L97.4,275.2z"/>
						</g>
					</g>
					<g>
						<g>
							<path class="st6" d="M143.8,276.5c0,0-0.7,7.1-13.6,10.9s-4.3,12.8-4.3,12.8l10.1,2.1l5.9-11.5l2.5-8.8L143.8,276.5z"/>
						</g>
					</g>
					<g>
						<g>
							<polygon class="st7" points="93.9,274.1 80,282.4 105.9,319.8 							"/>
						</g>
					</g>
					<g>
						<g>
							<polygon class="st7" points="147.5,273.9 162.1,284.9 135.3,320.6 							"/>
						</g>
					</g>
					<g>
						<g>
							<g>
								<polygon class="st2" points="118.7,304.2 111.9,331.2 130.9,331.2 123.1,304.2 								"/>
							</g>
						</g>
						<g>
							<g>
								<polygon class="st2" points="115.3,288.3 126.6,288.4 128.6,296.8 126.3,305.3 115.7,305.3 113.1,297.3 								"/>
							</g>
						</g>
					</g>
					<g>
						<g>
							<path class="st8" d="M80.3,251c-7.9-12.7-10.6-26.2-8.7-37.3c3.5-16.4,10-29.5,20.2-38.5c1.7-11,8.2-17.2,21.1-16.9
								c32.5,2.1,49.9,21.2,56.6,52.4c2,11.1-0.8,24.6-8.7,37.3c-8.5,16.9-3.4,29.6,4.8,47.6c-21-6.5-34.8-13.6-30.5-22.5
								c11.8-26.2,24.4-50,7.6-72.3c-5.5-0.1-30.1,17.5-45,5c-14.6,21.9-2.5,45.3,8.3,70.3c4.2,8.9-9.6,16-30.5,22.5
								C83.7,280.7,88.9,267.9,80.3,251z"/>
						</g>
					</g>
				</g>
			</g>
			<g>
				<g>
					<g>
						<g>
							<polygon class="st1" points="396.4,273.5 347.6,272.7 342.1,274.2 340.2,275.1 340.6,276.5 355.8,319.1 360.2,330.7 
								385.3,330.7 387.7,319.9 400.9,276.7 401.5,274.9 							"/>
						</g>
					</g>
					<g>
						<g>
							<path class="st3" d="M340.6,276.5c-23.3,4.6-41.4,15.1-41.4,31.9l-1.9,22.2h62.9l-4.4-11.5L340.6,276.5z"/>
						</g>
					</g>
					<g>
						<g>
							<path class="st2" d="M385.3,330.7h60.8l-1.9-22.2c0-16.2-19-26.9-43.3-31.7l-13.2,43.3L385.3,330.7z"/>
						</g>
					</g>
					<g>
						<g>
							<path class="st4" d="M387,254.2h-4.9h-25.6c-5.3,0-9.5,3.3-9.5,7.5v19.2c0,4.1,4.3,7.5,9.5,7.5H387c4.6,0,8.4-2.5,9.3-5.9
								c0.1,0,0.2,0,0.2-0.1v-1.5v-0.4v-18.8C396.5,257.5,392.3,254.2,387,254.2z"/>
						</g>
					</g>
					<g>
						<g>
							<path class="st5" d="M416.5,218.8c-1.2-0.3-2.6,0.4-3.9,1.9c0-0.7,0.1-1.5,0.1-2.2c0-24-18.3-43.5-41-43.5
								c-22.6,0-41,19.5-41,43.5c0,0.7,0,1.5,0,2.2c-1.3-1.5-2.7-2.3-3.9-1.9c-2.9,0.8-3.7,7.5-1.9,15c1.8,7.5,5.6,12.9,8.5,12.1
								c1-0.3,1.8-1.3,2.3-2.9c7,18,20.4,34.3,35.9,34.3s29-16.3,35.9-34.3c0.5,1.5,1.2,2.6,2.3,2.9c2.9,0.8,6.7-4.6,8.5-12.1
								C420.3,226.3,419.4,219.6,416.5,218.8z"/>
						</g>
					</g>
					<g>
						<g>
							<path class="st6" d="M346.6,274.6c0,0,0.8,7.1,14.7,10.9c14,3.8,4.6,12.8,4.6,12.8l-10.9,2.1l-6.4-11.5l-2.7-8.8L346.6,274.6
								z"/>
						</g>
					</g>
					<g>
						<g>
							<path class="st6" d="M396.9,275.9c0,0-0.8,7.1-14.7,10.9c-13.9,3.8-4.6,12.8-4.6,12.8l10.9,2.1l6.4-11.5l2.7-8.8L396.9,275.9
								z"/>
						</g>
					</g>
					<g>
						<g>
							<polygon class="st7" points="342.3,271.5 330,277.3 355.8,319.1 							"/>
						</g>
					</g>
					<g>
						<g>
							<polygon class="st7" points="401.2,272.3 413.5,278.1 387.7,319.9 							"/>
						</g>
					</g>
					<g>
						<g>
							<polygon class="st2" points="370.1,303.4 363.2,330.4 382.2,330.4 374.4,303.4 							"/>
						</g>
					</g>
					<g>
						<g>
							<polygon class="st2" points="366.6,287.5 377.9,287.6 380,296 377.7,304.5 367,304.5 364.4,296.5 							"/>
						</g>
					</g>
					<g>
						<g>
							<path class="st8" d="M396.8,183.9c5.4-27.2-75.9-25.8-66,36.8l5,22.3c0,0,31.4-18.3,54.4-47.2c8.5,3.9,13.4,11.2,15.1,28.8
								l2.4,18.5l5-22.3C412.6,220.7,419.7,175.7,396.8,183.9z"/>
						</g>
					</g>
				</g>
			</g>
			<g>
				<g>
					<g>
						<g>
							<path class="st1" d="M242.8,346.4L195,270l25-18.6l62.1,4.4l23.6,22.2l-53.2,74C249.3,350,246.1,348.1,242.8,346.4z"/>
						</g>
					</g>
					<g>
						<g>
							<path class="st2" d="M287.3,260.4l18,4.6c0,0,28,4.4,33.1,12c9.2,5.9,9.9,79.3,8.1,79.6c-1.8,0.3-86.9,0-86.9,0
								c-3.2-2.2-6.5-4.3-9.7-6.2v-0.1L287.3,260.4z"/>
						</g>
					</g>
					<g>
						<g>
							<path class="st2" d="M212.3,260.4l-18,4.6c0,0-28,4.4-33.1,12c-9.3,5.9-9.9,79.3-8.1,79.6c1.8,0.3,111.7,0,111.7,0
								c3.2-2.2-8.4-3.4-15.1-6.2v-0.1L212.3,260.4z"/>
						</g>
					</g>
					<g>
						<g>
							<rect x="222" y="221.5" class="st4" width="55.6" height="43.4"/>
						</g>
					</g>
					<g>
						<g>
							<g>
								<path class="st5" d="M204.8,193.7c3.4,33.6,28.8,58.5,44.9,58.5c17.2,0,40.9-25.6,44.9-58.5c3.9-32.1-20.1-48.4-44.9-48.4
									C224.9,145.3,201.5,161.5,204.8,193.7z"/>
							</g>
						</g>
						<g>
							<g>
								<path class="st2" d="M296.3,160.6c-3.7-12.9-15.9-27.6-31.6-31.5c-13.1-3.2-36.6-6.9-56.5,13.2c-2.6,2.6-8.4,23.2-7.8,29.1
									c2.3,21.2,4.2,27.2,4.2,27.2l5.3,2.5c0,0-2.6-7.3,0.9-17.4c0.9-2.7,2.2-5.3,3.6-7.6c13.3,7.3,38.7-0.8,54.1,1.3
									c11.1,1.5,13,14,19.6,14.2c0.5,5.8-0.8,9.5-0.8,9.5l5.3-2.5c0,0,0.6-1.8,1.5-6.9c1.3,0,2,0,2,0S300.7,176,296.3,160.6z"/>
							</g>
						</g>
						<g>
							<g>
								<g>
									<path class="st5" d="M290.7,199c-2.3,6.7-4.1,13.2-1.4,14.2c2.8,1,9.1-3.9,11.4-10.7c2.3-6.7,2-12.9-0.8-13.9
										C297.2,187.6,293,192.2,290.7,199z"/>
								</g>
							</g>
						</g>
						<g>
							<g>
								<g>
									<path class="st5" d="M208.9,199c2.3,6.7,4.1,13.2,1.4,14.2c-2.8,1-9.1-3.9-11.4-10.7c-2.3-6.7-2-12.9,0.8-13.9
										C202.4,187.6,206.6,192.2,208.9,199z"/>
								</g>
							</g>
						</g>
					</g>
					<g>
						<g>
							<g>
								<polygon class="st2" points="235.8,272.1 249.8,283.8 263.8,272.1 249.8,260.4 								"/>
							</g>
						</g>
						<g>
							<g>
								<polygon class="st2" points="252.3,281.1 260.6,321.3 250.4,354.4 237.8,321.3 247.1,281.1 								"/>
							</g>
						</g>
					</g>
					<g>
						<g>
							<g>
								<path class="st6" d="M279.6,243.1l-29.7,17.3l9.8,20.8l23.2-21.5c0,0,6.1-1.6,4.1-4.3C284.9,252.6,279.9,250.2,279.6,243.1z
									"/>
							</g>
						</g>
						<g>
							<g>
								<path class="st6" d="M220,243.2l29.7,17.2l-9.8,20.8l-23.2-21.4c0,0-6.1-1.6-4.1-4.3C214.7,252.7,219.7,250.2,220,243.2z"/>
							</g>
						</g>
					</g>
					<g>
						<g>
							<polygon class="st7" points="249.8,350.2 283.8,252.2 295.3,261.8 307.2,268.2 292.6,292.6 285.9,292.4 290.1,306.5 							
								"/>
						</g>
					</g>
					<g>
						<g>
							<polygon class="st7" points="249.8,350.2 215.8,252.2 204.4,261.1 191.4,268.2 207.1,292.6 213.8,292.4 209.5,306.5 							
								"/>
						</g>
					</g>
				</g>
			</g>
		</g>
	</g>
</g>
</svg>
