<?xml version="1.0" encoding="utf-8"?>
<!-- Generator: Adobe Illustrator 22.1.0, SVG Export Plug-In . SVG Version: 6.00 Build 0)  -->
<svg version="1.1" id="Layer_1" xmlns="http://www.w3.org/2000/svg" xmlns:xlink="http://www.w3.org/1999/xlink" x="0px" y="0px"
	 viewBox="0 0 353 265" style="enable-background:new 0 0 353 265;" xml:space="preserve">
<style type="text/css">
	.st0{fill:#FFFFFF;}
</style>
<g>
	<path class="st0" d="M242.4,239.9c-0.3-41.4-29.2-81.8-69.5-96.7c-2.2-0.8-4.4-1.8-7.5-3c-0.1-0.2-0.3-0.4-0.4-0.7
		c2.9-2,5.5-4,7.9-6.2c12-9.9,19.2-22.4,21.2-37.8c2.5-18.9-2.8-35.8-16.1-49.8c-11.8-12.4-27.6-18.5-43.4-18.4
		c-15.7-0.1-31.5,5.9-43.4,18.4C78.1,59.5,72.7,76.5,75.3,95.4c2.1,15.5,9.3,27.9,21.2,37.8c2.4,2.2,5,4.2,7.9,6.2
		c-0.1,0.2-0.3,0.4-0.4,0.7c-3,1.3-5.2,2.2-7.5,3c-38.2,14.2-66.3,51.5-69.2,90.7c-0.2,1-0.3,5.4-0.3,6c0,3.9-0.9,8.6,5.1,8.6
		c5.8,0,5.6-4.9,5.8-8.6c0.1-3,0.8-9.8,0.9-10.7c7-49.2,50.5-81.6,95.4-82.3c0.2,0,0.3,0,0.4,0c0.1,0,0.3,0,0.4,0
		c44.9,0.7,87.8,33,94.9,82.2c0.5,3.7,1.3,8.1,1.5,11.8c0.1,3.6,0.4,7.6,5.7,7.6C243.4,248.5,242.5,243.7,242.4,239.9z M86,86.9
		c0-26.8,22-49,48.8-49.1c26.7,0.2,48.8,22.3,48.8,49.1c0,27.1-22,49.4-48.8,49.5C107.9,136.3,86,114,86,86.9z"/>
	<path class="st0" d="M237.3,251.4c-0.1,0-0.2,0-0.2,0c-8.4,0-8.6-7.6-8.7-10.5c-0.1-2.4-0.6-5.3-1-8.2c-0.2-1.1-0.3-2.3-0.5-3.3
		c-6.4-44.7-46-78.9-92-79.6h-0.8c-46.3,0.7-86.1,35-92.4,79.7c-0.1,0.8-0.8,7.5-0.9,10.4l0,0.8c-0.2,3.5-0.5,10.7-8.8,10.7
		c-2.6,0-4.6-0.7-6-2.2c-2.2-2.3-2.1-5.5-2.1-8.1c0-0.4,0-0.9,0-1.3c0,0,0.1-4.7,0.3-6.4c3-40.4,32.3-78.7,71.1-93.2
		c1.1-0.4,2.2-0.8,3.3-1.3c-1.5-1.2-2.9-2.4-4.3-3.6C81.9,125,74.4,111.6,72.3,95.8C69.6,76,75.4,58,89,43.6
		c11.9-12.5,27.9-19.3,45.2-19.3c0.3,0,0.6,0,0.8,0c17.2,0,33.3,6.9,45.1,19.3C194,58.2,199.7,75.8,197,95.9
		c-2.1,15.8-9.5,29.2-22.2,39.7c-1.3,1.2-2.7,2.4-4.2,3.5c1.2,0.5,2.2,0.9,3.3,1.3c20,7.4,38.2,21.4,51.2,39.5
		c12.9,18,20.2,39.3,20.3,60c0,0.3,0,0.7,0,1.1c0.1,2.6,0.3,5.9-2,8.3C242,250.7,239.9,251.4,237.3,251.4z M134.6,143.8h0.4
		c23.1,0.4,45.7,8.7,63.5,23.6c18.7,15.5,30.9,37.2,34.3,61.2c0.1,1.1,0.3,2.1,0.5,3.3c0.4,3,0.9,6,1.1,8.8c0.1,4.5,0.8,4.8,2.7,4.8
		c1.2,0,1.8-0.2,2-0.4c0.5-0.5,0.4-2.5,0.3-3.8c0-0.4,0-0.8,0-1.2l0-0.1c-0.3-40.1-28.7-79.5-67.5-93.9c-1.2-0.4-2.5-1-3.8-1.5
		c-1.1-0.5-2.3-1-3.7-1.5l-1.1-0.4l-0.5-0.9c-0.2-0.3-0.4-0.7-0.6-1.2l-0.7-2.1l1.9-1.3c3-2.1,5.4-4,7.6-5.9l0.1-0.1
		c11.7-9.6,18.2-21.4,20.1-35.9c2.4-18.2-2.7-34.1-15.3-47.3c-10.8-11.4-25.4-17.6-41.2-17.5c-15.8-0.1-30.4,6.1-41.2,17.5
		C80.8,61,75.7,76.8,78.2,95c2,14.5,8.6,26.3,20.1,35.9l0.1,0.1c2.2,2,4.6,3.9,7.6,5.9l2.1,1.5l-1.2,2.3c-0.1,0.2-0.2,0.3-0.3,0.5
		l-0.4,1.1l-1.2,0.5c-2.8,1.2-5.2,2.2-7.7,3.1c-36.7,13.6-64.4,49.9-67.2,88.1l0,0.4c-0.1,0.7-0.2,4.5-0.2,5.4c0,0.5,0,1,0,1.4
		c0,1.3-0.1,3.3,0.4,3.8c0.2,0.2,0.7,0.4,1.7,0.4c2.1,0,2.6-0.4,2.8-5l0-0.8c0.1-3.1,0.8-9.9,0.9-10.9c3.4-24,15.7-45.7,34.6-61.3
		c18-14.9,40.7-23.3,63.8-23.6L134.6,143.8z M134.8,139.4C106.2,139.3,83,115.7,83,86.9c0-28.6,23.2-52,51.8-52.1
		c28.6,0.2,51.8,23.6,51.8,52.1C186.6,115.7,163.3,139.3,134.8,139.4z M134.8,40.8C109.5,40.9,89,61.6,89,86.9
		c0,25.5,20.6,46.4,45.8,46.5c25.2-0.1,45.8-21,45.8-46.5C180.6,61.7,160,41,134.8,40.8z"/>
</g>
<g>
	<path class="st0" d="M322.3,127.6H222c-2,0-3.7-1.6-3.7-3.7v-3.4c0-2,1.6-3.7,3.7-3.7h100.4c2,0,3.7,1.6,3.7,3.7v3.4
		C326,125.8,324.4,127.6,322.3,127.6z"/>
	<path class="st0" d="M322.3,130.6H222c-3.7,0-6.7-3-6.7-6.7v-3.4c0-3.7,3-6.7,6.7-6.7h100.4c3.7,0,6.7,3,6.7,6.7l0,3.6
		C328.9,127.7,325.8,130.6,322.3,130.6z M222,119.8c-0.4,0-0.7,0.4-0.7,0.7v3.4c0,0.4,0.4,0.7,0.7,0.7h100.3c0.4,0,0.8-0.5,0.8-0.8
		v-3.3c0-0.4-0.4-0.7-0.7-0.7H222z"/>
</g>
<g>
	<path class="st0" d="M277.5,71.9v100.4c0,2-1.6,3.7-3.7,3.7h-3.4c-2,0-3.7-1.6-3.7-3.7V71.9c0-2,1.6-3.7,3.7-3.7h3.4
		C275.9,68.2,277.5,70,277.5,71.9z"/>
	<path class="st0" d="M273.8,179h-3.4c-3.7,0-6.7-3-6.7-6.7V71.9c0-3.7,3-6.7,6.7-6.7h3.4c3.6,0,6.7,3.1,6.7,6.7v100.4
		C280.5,176,277.5,179,273.8,179z M270.4,71.2c-0.4,0-0.7,0.4-0.7,0.7v100.4c0,0.4,0.4,0.7,0.7,0.7h3.4c0.4,0,0.7-0.4,0.7-0.7V71.9
		c0-0.3-0.3-0.7-0.7-0.7H270.4z"/>
</g>
</svg>
