<?xml version="1.0" encoding="utf-8"?>
<!-- Generator: Adobe Illustrator 22.1.0, SVG Export Plug-In . SVG Version: 6.00 Build 0)  -->
<svg version="1.1" id="Layer_1" xmlns="http://www.w3.org/2000/svg" xmlns:xlink="http://www.w3.org/1999/xlink" x="0px" y="0px"
	 viewBox="0 0 353 265" style="enable-background:new 0 0 353 265;" xml:space="preserve">
<style type="text/css">
	.st0{fill:#19A24A;stroke:#19A24A;stroke-width:4;stroke-miterlimit:10;}
</style>
<path class="st0" d="M220.5,226.4c-0.3-41.4-29.2-81.8-69.5-96.7c-2.2-0.8-4.4-1.8-7.5-3c-0.1-0.2-0.3-0.4-0.4-0.7
	c2.9-2,5.5-4,7.9-6.2c12-9.9,19.2-22.4,21.2-37.8c2.5-18.9-2.8-35.8-16.1-49.8c-11.8-12.4-27.6-18.5-43.4-18.4
	C97,13.7,81.2,19.7,69.3,32.2C56.2,46,50.8,63,53.4,81.9c2.1,15.5,9.3,27.9,21.2,37.8c2.4,2.2,5,4.2,7.9,6.2
	c-0.1,0.2-0.3,0.4-0.4,0.7c-3,1.3-5.2,2.2-7.5,3c-38.2,14.2-66.3,51.5-69.2,90.7c-0.2,1-0.3,5.4-0.3,6c0,3.9-0.9,8.6,5.1,8.6
	c5.8,0,5.6-4.9,5.8-8.6c0.1-3,0.8-9.8,0.9-10.7c7-49.2,50.5-81.6,95.4-82.3c0.2,0,0.3,0,0.4,0s0.3,0,0.4,0
	c44.9,0.7,87.8,33,94.9,82.2c0.5,3.7,1.3,8.1,1.5,11.8c0.1,3.6,0.4,7.6,5.7,7.6C221.5,235,220.6,230.2,220.5,226.4z M64.1,73.4
	c0-26.8,22-49,48.8-49.1c26.7,0.2,48.8,22.3,48.8,49.1c0,27.1-22,49.4-48.8,49.5C86,122.8,64.1,100.5,64.1,73.4z"/>
<path class="st0" d="M300.4,114.1H200.1c-2,0-3.7-1.6-3.7-3.7V107c0-2,1.6-3.7,3.7-3.7h100.4c2,0,3.7,1.6,3.7,3.7v3.4
	C304.1,112.3,302.5,114.1,300.4,114.1z"/>
<path class="st0" d="M255.6,58.4v100.4c0,2-1.6,3.7-3.7,3.7h-3.4c-2,0-3.7-1.6-3.7-3.7V58.4c0-2,1.6-3.7,3.7-3.7h3.4
	C254,54.7,255.6,56.5,255.6,58.4z"/>
</svg>
