<?xml version="1.0" encoding="utf-8"?>
<!-- Generator: Adobe Illustrator 22.1.0, SVG Export Plug-In . SVG Version: 6.00 Build 0)  -->
<svg version="1.1" id="Layer_1" xmlns="http://www.w3.org/2000/svg" xmlns:xlink="http://www.w3.org/1999/xlink" x="0px" y="0px"
	 viewBox="0 0 353 265" style="enable-background:new 0 0 353 265;" xml:space="preserve">
<style type="text/css">
	.st0{fill:#FFFFFF;}
</style>
<path class="st0" d="M176.1,110.1c-36.7,0-73.4,0-110.1,0c-1.6,0-3.3,0-4.8-0.5c-6.8-1.9-9-9.8-4.3-15c0.9-1,2.1-1.9,3.1-2.6
	c35.8-25.2,71.7-50.3,107.6-75.5c5.8-4,11.8-4,17.5,0.1c35.6,24.9,71.2,49.9,106.8,74.8c1,0.7,2.1,1.5,3.1,2.3
	c3.1,2.8,4.1,6.2,2.8,10.2c-1.4,3.9-4.5,6.1-8.6,6.1c-9,0.2-17.9,0.1-26.8,0.1C233.7,110.2,204.9,110.2,176.1,110.1
	C176.1,110.2,176.1,110.1,176.1,110.1z M264.7,93.1c-0.8-0.7-1.2-1-1.7-1.4c-28.2-19.8-56.4-39.5-84.6-59.3c-1.6-1.1-2.6-1-4.2,0.1
	c-28,19.7-56.1,39.4-84.1,59c-0.6,0.4-1.1,0.8-2,1.6C147.1,93.1,205.7,93.1,264.7,93.1z"/>
<path class="st0" d="M176.3,248.4c-38.2,0-76.2,0-114.4,0c-4.7,0-5.5-0.8-5.5-5.5c0-2.2,0-4.4,0-6.6c0-3.6,1.1-4.8,4.9-4.8
	c19.9,0,39.8,0,59.7,0c56.5,0,113,0,169.5,0c4.9,0,5.6,0.8,5.6,5.6c0,2.1,0,4.3,0,6.3c0,3.8-1.1,4.9-4.9,4.9c-25.6,0-51,0-76.6,0
	C202.1,248.4,189.2,248.4,176.3,248.4z"/>
<path class="st0" d="M176.4,224.5c-33,0-66,0-99.1,0c-4.2,0-5.3-1-5.3-5.2c0-2.3,0-4.6,0-6.9c0-3.5,1.2-4.8,4.8-4.8
	c19.5,0,39,0,58.5,0c46.7,0,93.5,0,140.2,0c4.5,0,5.4,0.9,5.4,5.3c0,2.3,0,4.6,0,6.9c0,3.4-1.2,4.6-4.6,4.6c-15.4,0-30.8,0-46.2,0
	C212.1,224.5,194.2,224.5,176.4,224.5z"/>
<path class="st0" d="M196.4,159.6c0-12.6,0-25.2,0-37.8c0-4.1,1-5,5.1-5c2,0,3.9,0,5.9,0c5,0,5.9,0.8,5.9,5.7c0,12.3,0,24.6,0,37
	c0,12.4,0,24.8,0,37.2c0,4.9-0.8,5.7-5.9,5.7c-2.1,0-4.3,0-6.3,0c-3.4,0-4.7-1.2-4.7-4.6C196.4,185,196.4,172.2,196.4,159.6
	L196.4,159.6z"/>
<path class="st0" d="M87.6,159.6c0-12.5,0-25,0-37.5c0-4.4,0.9-5.3,5.4-5.4c2.2,0,4.4,0,6.6,0c3.6,0,4.9,1.2,4.9,4.9
	c0,11.2,0,22.5,0,33.7c0,13.9,0,27.7,0,41.6c0,4.5-1,5.5-5.6,5.5c-2.1,0-4.3,0-6.3,0c-3.7,0-4.9-1.1-4.9-4.9
	C87.6,184.9,87.6,172.2,87.6,159.6L87.6,159.6z"/>
<path class="st0" d="M158.8,159.6c0,12.6,0,25.2,0,37.8c0,4-1.1,5-5.1,5.1c-2.4,0-4.9,0-7.4,0c-2.9-0.1-4.3-1.3-4.3-4.2
	c0-25.7,0-51.6,0-77.3c0-2.9,1.4-4.1,4.3-4.2c2.6,0,5.3,0,7.9,0c3.4,0,4.7,1.2,4.7,4.6C158.8,134,158.8,146.8,158.8,159.6
	L158.8,159.6z"/>
<path class="st0" d="M267.5,159.6c0,12.6,0,25.2,0,37.8c0,4-1.1,5-5.2,5.1c-2.4,0-4.9,0-7.4,0c-2.9-0.1-4.3-1.3-4.3-4.2
	c0-25.7,0-51.6,0-77.3c0-2.9,1.3-4.1,4.3-4.2c2.5,0,5.1,0,7.6,0c3.7,0,4.9,1.1,4.9,4.9C267.5,134.2,267.5,146.9,267.5,159.6
	L267.5,159.6z"/>
</svg>
