<?xml version="1.0" encoding="utf-8"?>
<!-- Generator: Adobe Illustrator 22.1.0, SVG Export Plug-In . SVG Version: 6.00 Build 0)  -->
<svg version="1.1" id="Layer_1" xmlns="http://www.w3.org/2000/svg" xmlns:xlink="http://www.w3.org/1999/xlink" x="0px" y="0px"
	 viewBox="0 0 353 265" style="enable-background:new 0 0 353 265;" xml:space="preserve">
<style type="text/css">
	.st0{fill:#19A24A;}
</style>
<path class="st0" d="M176.2,110.1c-39.3,0-78.7,0-118,0c-1.7,0-3.5,0-5.1-0.5c-7.3-2-9.7-10.5-4.6-16.1c1-1.1,2.2-2,3.3-2.8
	c38.4-27,76.9-53.9,115.4-80.9c6.2-4.3,12.6-4.3,18.8,0.1c38.2,26.7,76.3,53.5,114.5,80.2c1.1,0.8,2.3,1.6,3.3,2.5
	c3.3,3,4.4,6.7,3,10.9c-1.5,4.2-4.8,6.5-9.2,6.5c-9.6,0.2-19.2,0.1-28.7,0.1C237.9,110.2,207,110.2,176.2,110.1
	C176.2,110.2,176.2,110.1,176.2,110.1z M271.2,91.9c-0.9-0.7-1.3-1.1-1.8-1.5c-30.2-21.2-60.5-42.4-90.7-63.6
	c-1.7-1.2-2.8-1.1-4.5,0.1C144.2,48,114.1,69.1,84,90.2c-0.6,0.4-1.2,0.9-2.1,1.7C145.1,91.9,207.9,91.9,271.2,91.9z"/>
<path class="st0" d="M176.4,258.4c-40.9,0-81.7,0-122.6,0c-5,0-5.9-0.9-5.9-5.9c0-2.4,0-4.7,0-7.1c0-3.9,1.2-5.1,5.3-5.1
	c21.3,0,42.7,0,64,0c60.6,0,121.1,0,181.7,0c5.2,0,6,0.9,6,6c0,2.3,0,4.6,0,6.8c0,4.1-1.2,5.2-5.2,5.2c-27.4,0-54.7,0-82.1,0
	C204,258.4,190.2,258.4,176.4,258.4z"/>
<path class="st0" d="M176.5,232.7c-35.4,0-70.8,0-106.2,0c-4.5,0-5.7-1.1-5.7-5.6c0-2.5,0-4.9,0-7.4c0-3.8,1.3-5.1,5.1-5.1
	c20.9,0,41.8,0,62.7,0c50.1,0,100.2,0,150.3,0c4.8,0,5.8,1,5.8,5.7c0,2.5,0,4.9,0,7.4c0,3.6-1.3,4.9-4.9,4.9c-16.5,0-33,0-49.5,0
	C214.8,232.7,195.6,232.7,176.5,232.7z"/>
<path class="st0" d="M197.9,163.1c0-13.5,0-27,0-40.5c0-4.4,1.1-5.4,5.5-5.4c2.1,0,4.2,0,6.3,0c5.4,0,6.3,0.9,6.3,6.1
	c0,13.2,0,26.4,0,39.7c0,13.3,0,26.6,0,39.9c0,5.2-0.9,6.1-6.3,6.1c-2.3,0-4.6,0-6.8,0c-3.6,0-5-1.3-5-4.9
	C197.9,190.4,197.9,176.7,197.9,163.1C197.9,163.1,197.9,163.1,197.9,163.1z"/>
<path class="st0" d="M81.3,163.1c0-13.4,0-26.8,0-40.2c0-4.7,1-5.7,5.8-5.8c2.4,0,4.7,0,7.1,0c3.9,0,5.2,1.3,5.2,5.3
	c0,12,0,24.1,0,36.1c0,14.9,0,29.7,0,44.6c0,4.8-1.1,5.9-6,5.9c-2.3,0-4.6,0-6.8,0c-4,0-5.2-1.2-5.2-5.2
	C81.3,190.3,81.3,176.7,81.3,163.1C81.3,163.1,81.3,163.1,81.3,163.1z"/>
<path class="st0" d="M157.6,163.1c0,13.5,0,27,0,40.5c0,4.3-1.2,5.4-5.5,5.5c-2.6,0-5.3,0-7.9,0c-3.1-0.1-4.6-1.4-4.6-4.5
	c0-27.6,0-55.3,0-82.9c0-3.1,1.5-4.4,4.6-4.5c2.8,0,5.7,0,8.5,0c3.6,0,5,1.3,5,4.9C157.6,135.7,157.6,149.4,157.6,163.1
	C157.6,163.1,157.6,163.1,157.6,163.1z"/>
<path class="st0" d="M274.2,163.1c0,13.5,0,27,0,40.5c0,4.3-1.2,5.4-5.6,5.5c-2.6,0-5.3,0-7.9,0c-3.1-0.1-4.6-1.4-4.6-4.5
	c0-27.6,0-55.3,0-82.9c0-3.1,1.4-4.4,4.6-4.5c2.7,0,5.5,0,8.2,0c4,0,5.2,1.2,5.2,5.2C274.2,135.9,274.2,149.5,274.2,163.1
	C274.2,163.1,274.2,163.1,274.2,163.1z"/>
</svg>
