<?xml version="1.0" encoding="utf-8"?>
<!-- Generator: Adobe Illustrator 22.1.0, SVG Export Plug-In . SVG Version: 6.00 Build 0)  -->
<svg version="1.1" id="Layer_1" xmlns="http://www.w3.org/2000/svg" xmlns:xlink="http://www.w3.org/1999/xlink" x="0px" y="0px"
	 viewBox="0 0 353 342" style="enable-background:new 0 0 353 342;" xml:space="preserve">
<style type="text/css">
	.st0{fill:#FFFFFF;}
	.st1{fill:#FEA201;}
</style>
<path class="st0" d="M40.5,53c0.8,0,1.5,0,2.2,0c7.4-0.2,14.9-0.1,22.3-0.5c11.6-0.7,22.9-3.4,33.4-8.3c9.6-4.5,19-9.6,28.4-14.6
	c10.5-5.5,21.3-10.3,33-12.8c9.4-2.1,18.9-2.8,28.4-2.3c17,0.8,32.7,6.2,47.7,14c9,4.7,17.9,9.6,27,14.1c10.5,5.2,21.8,8.4,33.5,9.7
	c8.4,1,16.7,0.8,25.1,0.8c0.9,0,1.9,0,2.9,0c0,0.3,0.1,0.5,0.1,0.7c-0.2,11.6-0.2,23.1-0.6,34.7c-0.5,11.9-1.8,23.7-3.5,35.4
	c-3.6,24.9-9.8,49.1-19.2,72.5c-8.8,22-20.2,42.6-34.7,61.5c-15.4,20.2-33.6,37.6-54.8,51.7c-9,6-18.2,11.3-28.3,15.2
	c-0.5,0.2-1.3,0.2-1.8,0c-13.8-5.4-26.1-13.2-37.9-22c-26-19.5-46.7-43.6-63-71.7c-12.6-21.8-21.9-44.9-28.4-69.2
	c-3.8-14.1-6.6-28.4-8.5-42.8c-2.6-19.3-3.6-38.8-3.4-58.3C40.5,58.2,40.5,55.7,40.5,53z M297.6,76.8c-0.2-0.1-0.6-0.2-1-0.2
	c-6.3-1.1-12.8-1.9-19-3.2c-13.7-2.9-26.7-7.8-39.1-14.3c-7.4-3.9-14.8-8-22.4-11.6c-13.9-6.6-28.5-8.5-43.7-6.8
	c-10.3,1.2-19.8,4.7-29,9.4c-8.4,4.3-16.7,9-25.3,13c-13.8,6.5-28.3,10.5-43.4,12.6c-2.5,0.4-4.9,0.7-7.5,1c0,0.5,0,0.9,0,1.2
	c0.4,13.5,1.5,27,3.4,40.3c1.8,12.8,4.3,25.5,7.6,38c6.1,22.7,14.7,44.4,26.7,64.6c13.7,23.2,31.1,43.2,52.3,59.9
	c7.6,5.9,15.6,11.1,24.3,15.2c0.6,0.3,1.4,0.3,2,0c2.3-1,4.5-2.2,6.7-3.4c12.3-6.8,23.2-15.5,33.3-25.3
	c17.2-16.6,31.4-35.5,42.5-56.7c10.4-20,17.9-41.1,23.1-63.1c3-12.6,5.2-25.4,6.5-38.3c0.9-8.8,1.4-17.6,2.1-26.4
	C297.8,81,297.6,79,297.6,76.8z"/>
<path class="st1" d="M208.3,233.7c-17.2,0-34.4,0-51.6,0c0.6-4,1.1-7.9,1.7-11.8c1.2-8.7,2.5-17.4,3.7-26.2
	c1.2-8.7,2.5-17.4,3.7-26.2c0.2-1.2,0.8-2.7,0.4-3.6c-0.4-0.9-1.9-1.3-3-2c-11.2-6.8-17.8-16.6-19.2-29.7
	c-2.2-20.5,12.1-38.9,32.6-42.1c21.1-3.3,40.8,11.1,44.2,32.3c2.6,16.5-5.8,32.9-20.9,40.4c-1,0.5-1.2,1-1.1,2.1
	c1.4,9.9,2.9,19.8,4.3,29.7c1.3,9.3,2.6,18.5,4,27.8C207.5,227.6,207.9,230.6,208.3,233.7z"/>
</svg>
