<?xml version="1.0" encoding="utf-8"?>
<!-- Generator: Adobe Illustrator 22.1.0, SVG Export Plug-In . SVG Version: 6.00 Build 0)  -->
<svg version="1.1" id="Layer_1" xmlns="http://www.w3.org/2000/svg" xmlns:xlink="http://www.w3.org/1999/xlink" x="0px" y="0px"
	 viewBox="0 0 241 239" style="enable-background:new 0 0 241 239;" xml:space="preserve">
<style type="text/css">
	.st0{fill:#FF7F00;}
</style>
<g>
	<path class="st0" d="M7.9,120.1C8,57.3,58.9,6.4,121.6,6.4c61.3,0.1,113.6,48.9,113.6,113.7c0,63.4-50.6,113.6-113.8,113.5
		C56.7,233.5,8,181.3,7.9,120.1z M54.4,120.6C54.4,120.6,54.3,120.6,54.4,120.6c-0.1,7.7-0.1,15.4-0.1,23.1
		c0.1,25.5,18.5,43.9,44,43.9c15.7,0,31.5,0,47.2,0c23.9,0,42.8-18.6,43-42.5c0.1-10.8,0.1-21.5,0.2-32.3c0-6.1-2.2-8.4-8.4-8.6
		c-3.2-0.1-6.4-0.3-9.6-0.5c-3.1-0.2-5.1-2-5.8-4.9c-0.6-2.6-1.2-5.2-1.4-7.8c-0.9-12.7-6.9-22.4-17.2-29.5
		c-6.1-4.3-12.7-7.9-20.3-8.2c-10.3-0.4-20.6-0.4-30.8,0c-22.4,0.8-40,18.5-40.8,40.8C54.1,102.9,54.4,111.7,54.4,120.6z"/>
	<path class="st0" d="M121.4,136.5c8,0,16.1,0,24.1,0c4,0,7.3,2.7,8,6.4c0.8,3.8-1.1,7.6-4.6,9.1c-1.3,0.5-2.8,0.8-4.2,0.8
		c-15.4,0.1-30.8,0.1-46.2,0c-5.3,0-9.1-3.5-9.1-8.2c0-4.7,3.8-8.1,9.2-8.1C106.1,136.4,113.7,136.5,121.4,136.5z"/>
	<path class="st0" d="M109.4,87.8c3.8,0,7.5,0,11.3,0c5,0.1,8.6,3.6,8.6,8.2c0,4.5-3.6,8.1-8.4,8.1c-7.7,0.1-15.4,0.1-23.1,0
		c-4.8,0-8.4-3.6-8.5-8.1c0-4.5,3.7-8.1,8.6-8.2C101.7,87.8,105.6,87.8,109.4,87.8z"/>
</g>
</svg>
