<?xml version="1.0" encoding="utf-8"?>
<!-- Generator: Adobe Illustrator 22.1.0, SVG Export Plug-In . SVG Version: 6.00 Build 0)  -->
<svg version="1.1" id="Layer_1" xmlns="http://www.w3.org/2000/svg" xmlns:xlink="http://www.w3.org/1999/xlink" x="0px" y="0px"
	 viewBox="0 0 353 265" style="enable-background:new 0 0 353 265;" xml:space="preserve">
<style type="text/css">
	.st0{fill:#19A24A;}
</style>
<path class="st0" d="M117.2,175.6c-4.9-15.7-9.7-31.1-14.5-46.4C94.8,103.8,86.8,78.4,79,53c-0.8-2.5-1.9-3.3-4.4-3.2
	c-5.2,0.2-10.5,0.1-15.8,0.1c-5.7,0-9.7-3.6-9.8-8.7c0-5.1,4-8.7,9.7-8.8c8.1,0,16.2,0,24.4,0c5.5,0,8.3,2.1,9.9,7.4
	c10.9,34.9,21.8,69.7,32.7,104.6c2.8,9,5.7,18.1,8.4,27.2c0.6,2,1.6,2.6,3.7,2.6c38-0.1,76-0.1,114,0c2.4,0,3.1-0.9,3.6-3
	c7.9-31.9,15.9-63.8,23.8-95.6c1.5-5.9,6-8.9,11.2-7.3c4.5,1.4,7.1,5.7,5.9,10.4c-6.8,27.2-13.6,54.5-20.4,81.7
	c-1.9,7.7-3.9,15.4-5.8,23c-1.5,6.1-4.2,8.2-10.6,8.2c-43.4,0-86.9-0.1-130.3,0.1c-3.7,0-7.6,0.8-11,2.1c-5.3,2.1-7.9,6.9-7.5,12.3
	c0.4,4.7,4.1,9.1,9,10.9c1.8,0.7,2.2-0.2,2.8-1.5c4.8-9.2,12.4-14.4,22.7-14.7c11.3-0.3,19.6,5,24.6,15.2c0.9,1.8,1.9,2.5,3.9,2.5
	c11.2-0.1,22.3-0.1,33.5,0c1.8,0,2.7-0.5,3.6-2.2c4.8-10,12.8-15.5,23.9-15.5c11.2,0,19.2,5.6,24,15.7c0.7,1.5,1.6,2,3.1,1.9
	c5.4-0.1,10.9-0.1,16.3,0c5.7,0,9.7,3.8,9.6,8.9c-0.1,5-4.1,8.5-9.6,8.6c-5.4,0-10.9,0.1-16.3,0c-1.6,0-2.4,0.5-3.1,2
	c-4.8,10.1-12.9,15.7-24,15.6c-11.2,0-19.2-5.7-24-15.8c-0.7-1.4-1.4-1.9-2.9-1.9c-11.5,0.1-23.1,0-34.6,0c-1.4,0-2.3,0.3-3,1.8
	c-4.9,10.4-13.2,16.1-24.7,15.8c-11.3-0.3-19.2-6.2-23.8-16.5c-0.4-1-1.9-1.9-3-2.1c-12.1-3-20.9-9.8-24.4-22
	c-4.3-15,4-30.2,19.2-35.9C114.7,176.5,115.8,176.1,117.2,175.6z M146.4,237.1c5.5-0.1,10.1-4.8,9.9-10.2c-0.2-5.2-4.7-9.7-9.9-9.7
	c-5.5,0-10.1,4.6-10,10.1C136.4,232.6,141.2,237.2,146.4,237.1z M234.9,217.2c-5.5,0-10.1,4.7-10,10.1c0.1,5.3,4.8,9.9,10.1,9.8
	c5.4-0.1,9.8-4.6,9.8-10C244.8,221.8,240.2,217.2,234.9,217.2z"/>
<path class="st0" d="M181.5,116.1c0,0.9,0,1.5,0,2.2c0,9.3,0,18.6,0,27.9c0,4.3-1.9,6.2-6.2,6.2c-4.6,0-9.2,0-13.8,0
	c-3.8,0-5.8-2.1-5.8-5.8c0-9.2,0-18.4,0-27.6c0-0.9,0-1.8,0-3c-0.7,0-1.3,0-1.8,0c-4.9,0-9.8,0-14.8,0c-1.6,0-3.1-0.1-3.9-1.7
	c-0.8-1.6,0.2-2.7,1.2-3.9c9.7-11.3,19.4-22.6,29.2-33.9c2.1-2.5,3.9-2.5,6-0.1c9.9,11.5,19.7,22.9,29.6,34.4c0.9,1,1.5,2,0.8,3.4
	c-0.6,1.3-1.8,1.8-3.2,1.8c-5.1,0-10.2,0-15.2,0C183,116.1,182.3,116.1,181.5,116.1z"/>
<path class="st0" d="M240.6,68.8c0-0.9,0-1.5,0-2.2c0-9.3,0-18.6,0-27.9c0-4.3-1.9-6.2-6.2-6.2c-4.6,0-9.2,0-13.8,0
	c-3.8,0-5.8,2.1-5.8,5.8c0,9.2,0,18.4,0,27.6c0,0.9,0,1.8,0,3c-0.7,0-1.3,0-1.8,0c-4.9,0-9.8,0-14.8,0c-1.6,0-3.1,0.1-3.9,1.7
	c-0.8,1.6,0.2,2.7,1.2,3.9c9.7,11.3,19.4,22.6,29.2,33.9c2.1,2.5,3.9,2.5,6,0.1c9.9-11.5,19.7-22.9,29.6-34.4c0.9-1,1.5-2,0.8-3.4
	c-0.6-1.3-1.8-1.8-3.2-1.8c-5.1,0-10.2,0-15.2,0C242.1,68.8,241.5,68.8,240.6,68.8z"/>
</svg>
