<?xml version="1.0" encoding="utf-8"?>
<!-- Generator: Adobe Illustrator 22.1.0, SVG Export Plug-In . SVG Version: 6.00 Build 0)  -->
<svg version="1.1" id="Layer_1" xmlns="http://www.w3.org/2000/svg" xmlns:xlink="http://www.w3.org/1999/xlink" x="0px" y="0px"
	 viewBox="0 0 353 265" style="enable-background:new 0 0 353 265;" xml:space="preserve">
<style type="text/css">
	.st0{fill:#FFFFFF;}
</style>
<path class="st0" d="M169,227.1c3.8,0,7.7,0,11.5,0c7.6,0,15.4,0,23.1,0c2.3,0,3.7,0.9,4.7,3c4.6,9.8,12.1,14.7,22.2,14.7
	c0.1,0,0.2,0,0.3,0c10,0,17.4-4.9,21.9-14.5c1-2.2,2.5-3.1,4.9-3.1c3.6,0.1,7.3,0,10.9,0c1.8,0,3.6,0,5.4,0c4.5-0.1,7.5-2.7,7.6-6.6
	c0-1.8-0.6-3.4-1.8-4.7c-1.4-1.4-3.5-2.2-5.8-2.2c-5.4-0.1-10.9-0.1-16.3,0c-2.3,0.1-3.9-0.8-4.9-3.1c-4.6-9.6-12.1-14.5-22.2-14.5
	c-10.1,0-17.5,4.8-22.1,14.4c-1.3,2.4-2.8,3.3-5.4,3.3c-11.3-0.1-22.2-0.1-33.5,0c-2.7,0-4.4-1.1-5.7-3.6
	c-4.7-9.6-12.4-14.4-22.8-14.1c-9.3,0.3-16.4,4.9-21,13.6c-0.5,1.1-1.8,3.8-5.3,2.4c-5.7-2.1-9.8-7.1-10.3-12.6
	c-0.5-6.5,2.9-12,8.8-14.3c3.8-1.4,7.9-2.2,11.7-2.2c32.6-0.1,65.7-0.1,97.8-0.1c10.8,0,21.7,0,32.5,0c5.5,0,7.4-1.4,8.7-6.7
	c0.8-3.3,1.6-6.5,2.5-9.8c1.1-4.4,2.2-8.8,3.3-13.2c3.4-13.6,6.8-27.3,10.2-41c3.4-13.6,6.8-27.2,10.2-40.8c0.9-3.6-1-6.9-4.6-8
	c-1.8-0.6-3.5-0.4-5,0.4c-1.7,1-3.1,2.9-3.7,5.5c-3.4,13.5-6.7,27.1-10.1,40.6c-4.6,18.3-9.1,36.6-13.7,54.9
	c-0.5,2.2-1.6,4.5-5.5,4.5c-37.8-0.1-76.2-0.1-114,0c-3.1,0-4.8-1.2-5.6-4c-2-6.8-4.2-13.6-6.2-20.2c-0.7-2.3-1.4-4.6-2.2-6.9
	c-5.4-17.3-10.8-34.5-16.2-51.8c-5.5-17.6-11-35.2-16.5-52.8c-1.4-4.5-3.4-6-8-6H54.5c-4.6,0.1-7.7,2.8-7.7,6.8
	c0.1,4,3.2,6.7,7.8,6.7c1.3,0,2.7,0,4,0c3.9,0,7.9,0,11.7-0.1c3.4-0.1,5.3,1.2,6.4,4.6c5.2,17,10.6,34.2,15.8,50.9
	c2.6,8.4,5.3,16.9,7.9,25.3c3.9,12.6,7.9,25.2,11.9,38l3.2,10.2l-2.5,0.9c-1.1,0.4-2,0.7-3,1.1C95.6,177.5,88,191.6,92,205.6
	c3.1,10.8,10.6,17.5,22.9,20.6c1.6,0.3,3.7,1.6,4.4,3.3c4.4,9.8,11.8,15,22,15.2c10.4,0.2,18.1-4.7,22.8-14.7
	C165.4,227.5,167.4,227.1,169,227.1z M222.2,212.2c2.3-2.3,5.4-3.6,8.5-3.6c6.5,0,11.9,5.4,11.9,11.9c0,6.5-5.3,11.9-11.8,12
	c-0.1,0-0.1,0-0.2,0c-3,0-6-1.2-8.2-3.4c-2.3-2.2-3.6-5.3-3.7-8.3C218.7,217.6,219.9,214.5,222.2,212.2z M150.8,228.6
	c-2.3,2.4-5.4,3.8-8.6,3.8c-0.1,0-0.1,0-0.2,0c-3,0-6-1.3-8.2-3.5c-2.3-2.3-3.6-5.3-3.6-8.3c-0.1-3.1,1.2-6.2,3.4-8.5
	c2.3-2.3,5.4-3.6,8.6-3.6c6.2,0,11.7,5.3,11.9,11.6C154.2,223.3,153.1,226.2,150.8,228.6z"/>
<path class="st0" d="M179.1,107.4l0.3,0h15.2c1.1,0,1.3-0.4,1.4-0.6c0.2-0.3,0.2-0.5-0.5-1.2L165.9,71c-0.9-1-1.4-1.1-1.5-1.1
	c-0.1,0-0.6,0-1.5,1.2c-9.7,11.2-19.5,22.6-29,33.6l-0.4,0.4c-1,1.2-1,1.3-0.8,1.6c0.2,0.4,0.4,0.6,2.1,0.6h18.6v32.6
	c0,2.6,1.2,3.8,3.8,3.8h13.8c3.2,0,4.2-1,4.2-4.2v-32.1h2C178,107.4,178.6,107.4,179.1,107.4z"/>
<path class="st0" d="M192.9,66.7c9.5,11.1,19.3,22.5,29.1,33.8c1,1.1,1.4,1.2,1.5,1.2c0,0,0,0,0,0c0.1,0,0.5-0.1,1.5-1.1l29.6-34.4
	c0.7-0.8,0.7-0.9,0.5-1.2c-0.1-0.3-0.3-0.7-1.4-0.7l-15.5,0c-0.4-0.1-0.9-0.1-1.8-0.1h-2V32c0-3.2-1-4.2-4.2-4.2h-13.8
	c-2.6,0-3.8,1.2-3.8,3.8v32.6H194c-1.7,0-1.9,0.2-2.1,0.6c-0.1,0.3-0.2,0.4,0.8,1.6L192.9,66.7z"/>
</svg>
