<?xml version="1.0" encoding="utf-8"?>
<!-- Generator: Adobe Illustrator 22.1.0, SVG Export Plug-In . SVG Version: 6.00 Build 0)  -->
<svg version="1.1" id="Layer_1" xmlns="http://www.w3.org/2000/svg" xmlns:xlink="http://www.w3.org/1999/xlink" x="0px" y="0px"
	 viewBox="0 0 353 342" style="enable-background:new 0 0 353 342;" xml:space="preserve">
<style type="text/css">
	.st0{fill:#FFFFFF;}
	.st1{fill:#6BED3D;}
</style>
<path class="st0" d="M222.8,22c3,0.6,6.1,1,9,1.8c17.6,4.9,30.7,21,32,39.3c0.1,1.8,0.2,3.6,0.2,5.5c0,32.2,0,64.4,0,96.7
	c0,0.7,0,1.3,0,2.1c-7.5,0-14.9,0-22.4,0c0-0.7,0-1.3,0-1.9c0-32.7,0-65.5,0-98.2c0-10.4-6.3-19.1-16.1-21.8c-2.3-0.6-4.7-0.9-7-0.9
	c-26.4-0.1-52.8,0-79.2-0.1c-3.3,0-5.6,1.5-7.2,4.3c-1.5,2.6-2,5.5-2.1,8.5c-0.2,4.6-0.3,9.1-0.3,13.7c0,9.6,0,19.2,0,28.7
	c0,7.4-4.6,12-12.1,12c-13.5,0.1-27.1,0-40.6,0.3c-2.9,0.1-5.9,0.8-8.7,1.8c-3.4,1.1-5.2,3.8-5.6,7.4c-0.1,0.8-0.1,1.6-0.1,2.4
	c0,48,0,96.1,0,144.1c0,11.2,7.1,20.2,17.8,22.5c1.9,0.4,3.9,0.5,5.9,0.5c36.2,0,72.3,0,108.5,0c0.6,0,1.3,0,2,0
	c0,7.5,0,14.8,0,22.4c-0.5,0-1.1,0-1.6,0c-36.6,0-73.3,0-109.9,0c-22.6,0-41.4-16.3-44.6-38.6c-0.3-2.4-0.4-4.9-0.4-7.4
	c0-50.7,0.1-101.4-0.1-152.1c0-7.5,2.3-13.9,6.6-19.7c4.9-6.7,10.7-12.6,16.5-18.4C76.2,63.8,89,51.1,101.8,38.4
	c4.8-4.8,9.9-9.4,15.9-12.6c3-1.6,6.4-2.5,9.7-3.8C159.2,22,191,22,222.8,22z"/>
<path class="st1" d="M264.5,320c-1.2-2-2.4-4.1-3.7-6.1c-2.4-3.8-4.8-7.6-7.2-11.4c-0.5-0.8-1-1-1.9-0.9c-4.3,0.1-8.7,0.2-13,0
	c-1,0-1.5,0.2-2.1,1c-3.3,5.3-6.7,10.5-10.1,15.7c-0.3,0.5-0.6,0.9-1,1.5c-5.6-2.3-11.1-4.6-16.7-7c1-4.3,2-8.5,3-12.6
	c0.6-2.5,1.1-4.9,1.7-7.4c0.2-0.8,0.1-1.2-0.5-1.8c-3.2-3.1-6.4-6.3-9.5-9.5c-0.7-0.7-1.2-0.8-2-0.6c-6.1,1.4-12.3,2.7-18.4,4.1
	c-1.2,0.3-1.8,0-2.2-1.2c-2-5.1-4.1-10.1-6.2-15.3c0.5-0.3,0.9-0.6,1.4-0.9c5.3-3.3,10.6-6.6,15.9-9.8c0.9-0.5,1-1.1,1-2.1
	c-0.1-4.3-0.1-8.7,0-13c0-1-0.1-1.5-1-2.1c-5.2-3.3-10.4-6.7-15.6-10c-0.5-0.3-0.9-0.6-1.4-1c0.1-0.4,0.2-0.8,0.4-1.1
	c2-4.8,4-9.5,5.9-14.3c0.4-1,0.8-1.3,1.9-1c6.1,1.5,12.2,2.9,18.3,4.4c1.1,0.3,1.7,0,2.4-0.8c3-3.1,6.1-6.2,9.3-9.2
	c0.6-0.6,0.9-1,0.7-1.9c-1.4-6.4-2.8-12.8-4.2-19.3c-0.1-0.2-0.1-0.5-0.1-0.8c5.6-2.3,11.1-4.6,16.8-6.8c3.5,5.6,6.9,11.1,10.2,16.6
	c0.8,1.4,1.6,1.7,3.2,1.7c4.2-0.1,8.5,0.1,12.7,0.1c0.5,0,1.3-0.5,1.6-1c3.3-5.3,6.6-10.5,9.9-15.8c0.3-0.5,0.6-0.9,1-1.4
	c4.4,1.8,8.7,3.7,13.1,5.5c3.7,1.5,3.6,1.5,2.7,5.4c-1.2,5.4-2.4,10.8-3.7,16.1c-0.2,1,0.1,1.5,0.8,2.2c3.1,3.1,6.2,6.2,9.2,9.4
	c0.6,0.6,1,0.8,1.8,0.6c6.5-1.5,13-3,19.5-4.5c0.2,0,0.4-0.1,0.7-0.1c2.3,5.6,4.6,11.1,6.9,16.7c-5.7,3.6-11.3,7.2-16.9,10.6
	c-1.2,0.7-1.5,1.4-1.4,2.9c0.2,4.2,0,8.5-0.1,12.7c0,0.9,0.3,1.2,0.9,1.6c5.4,3.3,10.7,6.7,16.1,10c0.4,0.3,0.8,0.5,1.4,0.9
	c-2.3,5.6-4.6,11.1-7,16.7c-4.7-1.1-9.4-2.1-14.1-3.2c-2-0.5-4.1-0.9-6.1-1.4c-0.9-0.2-1.4,0-2,0.7c-3,3.1-6.1,6.2-9.2,9.2
	c-0.7,0.7-0.9,1.2-0.7,2.1c1.5,6.2,2.9,12.4,4.4,18.6c0.3,1.1,0,1.6-1,2c-5.1,2.1-10.2,4.2-15.3,6.3C264.7,320,264.6,320,264.5,320z
	 M270.6,249.4c0-14-11.3-25.3-25.3-25.4c-14,0-25.3,11.3-25.4,25.3c0,14,11.3,25.4,25.2,25.4C259.3,274.7,270.6,263.4,270.6,249.4z"
	/>
<path class="st0" d="M96.4,145c0-7.5,0-14.8,0-22.2c37.2,0,74.4,0,111.7,0c0,7.4,0,14.8,0,22.2C170.9,145,133.7,145,96.4,145z"/>
<path class="st0" d="M96.4,201c0-7.5,0-14.8,0-22.2c33.1,0,66.1,0,99.2,0c0,7.4,0,14.8,0,22.2C162.5,201,129.6,201,96.4,201z"/>
<path class="st0" d="M96.4,256.8c0-7.4,0-14.8,0-22.2c26,0,52,0,78.1,0c0,7.4,0,14.7,0,22.2C148.5,256.8,122.5,256.8,96.4,256.8z"/>
</svg>
