<?xml version="1.0" encoding="utf-8"?>
<!-- Generator: Adobe Illustrator 22.1.0, SVG Export Plug-In . SVG Version: 6.00 Build 0)  -->
<svg version="1.1" id="Layer_1" xmlns="http://www.w3.org/2000/svg" xmlns:xlink="http://www.w3.org/1999/xlink" x="0px" y="0px"
	 viewBox="0 0 241 239" style="enable-background:new 0 0 241 239;" xml:space="preserve">
<style type="text/css">
	.st0{fill:#1BCAFC;}
</style>
<path class="st0" d="M120.1,235.2C56.5,235.3,3.8,182.7,4.8,117.5C5.8,55,57.6,2.6,122.9,3.8c62.5,1.2,114.4,53,113.3,117.9
	C235.1,184.2,183.7,235.7,120.1,235.2z M131.7,120.3c5.5,0,10.4-0.1,15.3,0c2.4,0.1,3.8-0.5,3.9-3.3c0.4-6.1,1-12.2,1.7-18.3
	c0.3-2.8-0.6-3.7-3.3-3.6c-4.9,0.1-9.8-0.1-14.7,0.1c-2.3,0-3.4-0.6-3.3-3.1c0.2-3.2,0.1-6.3,0.2-9.5c0.3-5.5,2.5-7.7,8-7.9
	c3.6-0.2,7.1-0.1,10.7-0.1c2,0,2.9-0.8,2.9-2.9c-0.1-5.9-0.2-11.8,0-17.8c0.1-2.8-0.9-3.9-3.7-3.8c-7.4,0.3-14.9,0.3-22.3,0.5
	c-12.9,0.3-23.2,9.6-24.5,22.5c-0.6,6.5-0.5,13-0.6,19.5c0,2.1-0.7,2.9-2.9,2.8c-3-0.2-5.9,0-8.9-0.1c-1.8,0-2.6,0.7-2.5,2.6
	c0.1,6.4,0.1,12.9,0,19.3c0,2,0.8,2.8,2.7,2.8c2.4,0,4.9,0.1,7.3,0c4.1-0.1,4.1-0.1,4.1,4.1c0,20.5,0,41,0,61.6
	c0,2.8,0.9,3.8,3.7,3.7c7.2-0.1,14.5,0,21.7,0c4.1,0,4.3-0.1,4.3-4.3c0-16.8,0-33.7,0-50.5C131.7,130,131.7,125.3,131.7,120.3z"/>
</svg>
