<?xml version="1.0" encoding="utf-8"?>
<!-- Generator: Adobe Illustrator 22.1.0, SVG Export Plug-In . SVG Version: 6.00 Build 0)  -->
<svg version="1.1" id="Layer_1" xmlns="http://www.w3.org/2000/svg" xmlns:xlink="http://www.w3.org/1999/xlink" x="0px" y="0px"
	 viewBox="0 0 403.5 403.5" style="enable-background:new 0 0 403.5 403.5;" xml:space="preserve">
<style type="text/css">
	.st0{fill:#FFFFFF;}
</style>
<path class="st0" d="M201.9,13.5c-0.1,0-0.1,0-0.2,0c-50.1,0-97.3,19.6-132.9,55.1c-35.6,35.6-55.3,82.8-55.3,133.1
	c0,50.2,19.6,97.5,55.2,133.1c35.6,35.6,82.9,55.2,133.1,55.3c0,0,0,0,0,0c50.2,0,97.4-19.6,133-55.2
	c35.6-35.6,55.2-82.9,55.2-133.1C390,98,305.6,13.6,201.9,13.5z M191.3,41.1l3.3-2.6v67.7h-54.9l1.5-2.9
	C154.1,78.2,170.4,57.9,191.3,41.1z M194.6,120.4v74.2h-76.6l0.1-2.1c0.1-1.2,0.1-2.3,0.2-3.4c0.1-2.4,0.3-4.9,0.5-7.4
	c1.8-20.1,6.3-39.6,13.4-58.2c0.8-2.2,2.2-3.1,4.5-3.1c0,0,0,0,0,0c14.3,0,28.8,0,42.8,0L194.6,120.4z M69.2,103.1
	c25.1-32.5,56.2-52.8,95.3-62l6.1-1.4l-4.4,5c-0.3,0.3-0.5,0.6-0.8,0.9c-16.2,16.5-29.6,35.9-39.7,57.6c-1,2.2-2.5,3.2-4.9,3.2
	c0,0,0,0,0,0c-12.3-0.1-24.8-0.1-36.9,0l-17.1,0L69.2,103.1z M36.7,192.3c0.1-1.4,0.3-2.8,0.4-4.3c0.3-3,0.6-6.1,1-9.2
	c2.7-19.7,9-38.5,18.5-56.1c0.9-1.7,2.2-2.4,4.1-2.4c0,0,0,0,0,0c13.3,0,26.6,0,39.9,0l13.2,0c0.4,0,0.8,0,1.2,0.1l3.3,0.2l-0.9,2.5
	c-7.9,22.3-12.4,45.6-13.4,69.4l-0.1,1.9H36.5L36.7,192.3z M61.1,283.1c-2.1,0-3.6-0.8-4.6-2.7c-11.3-21-17.9-43.6-19.5-67.3
	c0-0.5,0-1,0-1.5c0-0.2,0-0.5,0-0.7v-2h67l0.1,1.9c1,23.8,5.5,47.2,13.4,69.6l0.9,2.7l-15.6,0C88.8,283,74.9,283,61.1,283.1
	C61.1,283.1,61.1,283.1,61.1,283.1z M164.4,362.5c-38.5-9.2-70.5-30.1-95.1-62.1l-2.3-3l4.7-0.3c0.5,0,0.9-0.1,1.2-0.1l12.4,0
	c12,0,23.9,0,35.9,0c0,0,0,0,0,0c2.1,0,3.4,0.8,4.3,2.7c10.2,22,23.7,41.5,40,58.2c0.6,0.6,1,1.2,1.2,1.9l1.3,3.5L164.4,362.5z
	 M194.6,365l-3.3-2.6c-20.8-16.7-37.3-37-50.2-62.3l-1.5-2.9h55V365z M194.6,283l-13.7,0c-14.8,0-29.6,0-44.4,0c0,0,0,0-0.1,0
	c-1,0-3.1,0-4.1-2.6c-8.4-22-13.1-45.2-14.2-68.8c0-0.2,0-0.4,0.1-0.7l0.2-2.1h76.1V283z M208.9,38.5l3.3,2.6
	c20.8,16.6,37.2,37,50.2,62.1l1.5,2.9h-54.9V38.5z M208.9,120.6l2.4-0.1c0.4,0,0.9-0.1,1.3-0.1l14.6,0c13.3,0,26.5,0,39.8,0
	c1.3,0,3.2,0.3,4.2,2.8c8.3,21.8,13.1,44.8,14.1,68.4c0,0.2,0,0.5,0,0.8l-0.2,2.2h-76.3V120.6z M285.6,208.9l-0.2,2.2
	c-0.1,1.5-0.2,3-0.3,4.5c-0.2,3.3-0.4,6.4-0.8,9.6c-2,18.9-6.4,37.5-13.2,55.1c-0.5,1.3-1.4,2.9-3.9,2.9c0,0,0,0,0,0
	c-14.1,0-28.2,0-42.3,0l-12.6,0c-0.3,0-0.6,0-1,0l-2.4-0.1v-74H285.6z M212.2,362.4l-3.3,2.6v-67.7h54.9l-1.5,2.9
	C249.5,325.2,233.1,345.5,212.2,362.4z M333.9,300.8c-24.4,31.8-56.4,52.5-95,61.6l-6,1.4l4.3-5c0.2-0.3,0.5-0.6,0.8-0.9
	c16.3-16.6,29.7-36,39.8-57.8c1-2.2,2.6-3.1,5-3.1c12.3,0.1,24.8,0,36.9,0l13.7,0l1.3,2.7L333.9,300.8z M366.4,214.3
	c-1.8,23.5-8.5,45.9-19.8,66.5c-0.6,1.1-2.1,2.2-3.6,2.2c-11.1,0-22.3,0-33.3,0c-5.3,0-10.6,0-15.8,0l-5.1,0c-0.3,0-0.5,0-0.8-0.1
	l-2.7-0.5l0.8-2.3c4-11.3,7.1-22.8,9.3-34.3c2.2-11.4,3.5-23.2,4-35.1l0.1-1.9h66.9v2c0,0.3,0,0.7,0,1
	C366.5,212.7,366.5,213.5,366.4,214.3z M347,123c11.4,21.1,18,43.8,19.6,67.4c0,0.4,0,0.8,0.1,1.3l0.1,2.8h-67.1l-0.1-1.9
	c-1-23.8-5.5-47.2-13.4-69.5l-1-2.7l15.5,0c14,0,28,0,41.9,0C344.6,120.3,346,121.2,347,123z M331.8,106.2c-0.5,0-0.9,0.1-1.3,0.1
	l-12.1,0c-12,0-24,0-35.9,0c0,0,0,0,0,0c-2.1,0-3.5-0.9-4.4-2.8c-10.2-21.9-23.6-41.4-40-58c-0.3-0.3-0.5-0.6-0.7-0.8l-0.2-0.3
	l-3.9-4.6l5.9,1.4c38.5,9.1,70.5,29.9,95.2,61.9l2.3,3L331.8,106.2z"/>
</svg>
