<?xml version="1.0" encoding="utf-8"?>
<!-- Generator: Adobe Illustrator 22.1.0, SVG Export Plug-In . SVG Version: 6.00 Build 0)  -->
<svg version="1.1" id="Layer_1" xmlns="http://www.w3.org/2000/svg" xmlns:xlink="http://www.w3.org/1999/xlink" x="0px" y="0px"
	 viewBox="0 0 403.5 403.5" style="enable-background:new 0 0 403.5 403.5;" xml:space="preserve">
<style type="text/css">
	.st0{fill:#FFFFFF;}
</style>
<path class="st0" d="M184.6,14c10.5,0,20.9,0,31.4,0c3.9,0.5,7.8,1.1,11.7,1.7c41,6.3,76.6,23.7,106.1,52.9
	c28.5,28.2,46.4,62.2,53.5,101.7c1.1,5.9,1.8,11.8,2.8,17.8c0,10.5,0,20.9,0,31.4c-0.9,5.8-1.7,11.6-2.7,17.4
	c-8.5,47-31.3,85.8-68.7,115.4c-46.4,36.7-99.3,49.1-157.1,37.4c-50-10.1-89.7-37.1-118.4-79.3c-27.6-40.5-37.6-85.5-30.8-134
	c5.7-41.1,23.6-76.6,52.8-106.1c28.2-28.6,62.2-46.4,101.7-53.5C172.8,15.7,178.7,14.9,184.6,14z M200.4,371.1
	c92.4-0.1,167.2-74.8,167.3-167.2c0.1-92.5-74.9-167.5-167.4-167.5c-92.4,0-167.2,74.8-167.3,167.2
	C32.9,296.1,107.9,371.2,200.4,371.1z"/>
<path class="st0" d="M131.8,97.8c12.2,21.1,24.1,41.8,36,62.4c-12.6,9.2-12.8,22-10.3,35c4.6,23.7,15.8,43.9,34.7,59.4
	c7.9,6.5,16.8,10.4,27.4,7.8c2-0.5,3.8-1.3,6-2.1c11.9,20.6,23.8,41.3,35.7,61.8c-19.2,12.8-34.3,14.1-50.9,3.8
	c-18.3-11.3-33-26.4-46.1-43.1c-25.2-32.1-44.5-67.4-55.7-106.9c-3.8-13.5-6.2-27.2-5.5-41.4c0.6-12.1,6.1-21.5,15.9-28.3
	C123.1,103.4,127.4,100.8,131.8,97.8z"/>
<path class="st0" d="M272.8,320.5c-4.9,0.1-7.1-2.2-8.9-5.4c-9.8-17-19.6-34.1-29.5-51.1c-1.2-2.2-2.6-4.3-3.7-6.5
	c-2-4-1.1-8.1,2.8-10.5c6.1-3.8,12.3-7.4,18.6-10.7c4.4-2.3,8.3-0.7,11.1,4.1c8.4,14.5,16.8,29.1,25.2,43.7
	c2.6,4.4,5.2,8.8,7.6,13.3c2.8,5.1,1.8,9.2-3.2,12.2c-5.5,3.3-11,6.4-16.5,9.5C275,319.9,273.4,320.2,272.8,320.5z"/>
<path class="st0" d="M136.9,93.8c0.1-3.9,1.5-6.3,4.1-7.8c5.9-3.5,11.7-7,17.7-10.2c4.6-2.5,8.8-1,11.7,4
	c8.8,15.2,17.6,30.5,26.4,45.7c2.1,3.6,4.2,7.3,6.3,10.9c2.9,5.3,1.9,9.4-3.2,12.5c-5.4,3.2-10.8,6.3-16.2,9.4
	c-5.1,2.8-9.2,1.8-12.2-3.2c-11.1-19.1-22.2-38.3-33.2-57.5C137.5,96.1,137.2,94.6,136.9,93.8z"/>
</svg>
