<?xml version="1.0" encoding="utf-8"?>
<!-- Generator: Adobe Illustrator 22.1.0, SVG Export Plug-In . SVG Version: 6.00 Build 0)  -->
<svg version="1.1" id="Layer_1" xmlns="http://www.w3.org/2000/svg" xmlns:xlink="http://www.w3.org/1999/xlink" x="0px" y="0px"
	 viewBox="0 0 271.7 441" style="enable-background:new 0 0 271.7 441;" xml:space="preserve">
<style type="text/css">
	.st0{fill:#6BED3D;}
	.st1{fill:#FFFFFF;}
</style>
<path class="st0" d="M89.7,141.7H71c-5.5,0-10-4.5-10-10v-18.7c0-5.5,4.5-10,10-10h18.7c5.5,0,10,4.5,10,10v18.7
	C99.7,137.2,95.2,141.7,89.7,141.7z"/>
<g>
	<path class="st1" d="M161.8,60.8h-47.6c-2.4,0-4.4-2-4.4-4.4v0c0-2.4,2-4.4,4.4-4.4h47.6c2.4,0,4.4,2,4.4,4.4v0
		C166.2,58.8,164.2,60.8,161.8,60.8z"/>
	<g>
		<path class="st1" d="M234.1,414.3h-192c-8.8,0-16-7.2-16-16V36.6c0-8.8,7.2-16,16-16h192c8.8,0,16,7.2,16,16v361.7
			C250.1,407.1,242.9,414.3,234.1,414.3z M42.1,32.6c-2.2,0-4,1.8-4,4v361.7c0,2.2,1.8,4,4,4h192c2.2,0,4-1.8,4-4V36.6
			c0-2.2-1.8-4-4-4H42.1z"/>
		<path class="st1" d="M209.2,195.8h-18.7c-5.5,0-10-4.5-10-10v-18.7c0-5.5,4.5-10,10-10h18.7c5.5,0,10,4.5,10,10v18.7
			C219.2,191.3,214.7,195.8,209.2,195.8z"/>
		<path class="st1" d="M149.5,195.8h-18.7c-5.5,0-10-4.5-10-10v-18.7c0-5.5,4.5-10,10-10h18.7c5.5,0,10,4.5,10,10v18.7
			C159.5,191.3,155,195.8,149.5,195.8z"/>
		<path class="st1" d="M89.7,195.8H71c-5.5,0-10-4.5-10-10v-18.7c0-5.5,4.5-10,10-10h18.7c5.5,0,10,4.5,10,10v18.7
			C99.7,191.3,95.2,195.8,89.7,195.8z"/>
	</g>
	<path class="st1" d="M209.2,141.7h-18.7c-5.5,0-10-4.5-10-10v-18.7c0-5.5,4.5-10,10-10h18.7c5.5,0,10,4.5,10,10v18.7
		C219.2,137.2,214.7,141.7,209.2,141.7z"/>
	<path class="st1" d="M149.5,141.7h-18.7c-5.5,0-10-4.5-10-10v-18.7c0-5.5,4.5-10,10-10h18.7c5.5,0,10,4.5,10,10v18.7
		C159.5,137.2,155,141.7,149.5,141.7z"/>
	<rect x="32" y="75.3" class="st1" width="211.5" height="9.1"/>
	<rect x="32" y="345.8" class="st1" width="211.5" height="9.1"/>
	<g>
		<path class="st1" d="M138.1,396.8c-9.7,0-17.7-7.9-17.7-17.7s7.9-17.7,17.7-17.7c9.7,0,17.7,7.9,17.7,17.7
			S147.9,396.8,138.1,396.8z M138.1,365.5c-7.5,0-13.7,6.1-13.7,13.7c0,7.5,6.1,13.7,13.7,13.7c7.5,0,13.7-6.1,13.7-13.7
			C151.8,371.6,145.7,365.5,138.1,365.5z"/>
	</g>
</g>
</svg>
