<?xml version="1.0" encoding="utf-8"?>
<!-- Generator: Adobe Illustrator 22.1.0, SVG Export Plug-In . SVG Version: 6.00 Build 0)  -->
<svg version="1.1" id="Layer_1" xmlns="http://www.w3.org/2000/svg" xmlns:xlink="http://www.w3.org/1999/xlink" x="0px" y="0px"
	 viewBox="0 0 353 342" style="enable-background:new 0 0 353 342;" xml:space="preserve">
<style type="text/css">
	.st0{fill:#19A24A;}
	.st1{fill:#FFA201;}
</style>
<g>
	<path class="st0" d="M326.2,146.7c-1.3,10.7-2.7,21.4-3.8,32.1c-1.4,13.1-1.8,26.5-4.4,39.3c-1.6,7.9-5.5,16.1-10.4,22.5
		c-13.3,17.3-28.1,33.6-41.6,50.8c-2.8,3.6-3.5,9.4-3.9,14.4c-1.5,17.7-1.3,17.7-19.1,17.8c-9.5,0-19.1-0.1-28.6,0.2
		c-4.8,0.1-6.5-1.8-6.6-6.5c-0.2-8.9-0.4-17.8-1.4-26.6c-2.2-19.9,4.5-36.9,19.4-49.2c17.2-14.2,29.5-32.1,43.2-49.1
		c5.6-6.9,10.8-8.6,16.5-4.7c5.5,3.8,6,9.8,1.5,17.2c-7.4,12.2-15,24.3-22.3,36.6c-1,1.8-0.6,4.4-0.8,6.7c2-1.2,4.5-2,5.8-3.7
		c5.9-8.3,11.2-17,17-25.3c10.7-15.3,16.1-32.2,16.3-51c0.1-8.8,2.3-17.5,3.7-26.3c0.8-4.9,2.5-9.5,8.1-10.6c6-1.1,8.9,3.2,11.5,7.6
		C326.2,141.5,326.2,144.1,326.2,146.7z"/>
	<path class="st0" d="M33.5,138.9c2.4-4.7,5.5-8.7,11.4-7.7c5.7,0.9,7.4,5.8,8,10.6c1.9,13.7,3.3,27.5,5.3,41.2
		c0.8,5.7,1.5,11.9,4.3,16.7c8.7,15.4,18.3,30.4,27.7,45.3c1,1.6,3.6,2.1,5.5,3.1c-0.2-2.2,0.2-4.9-0.8-6.7
		c-7.4-12.5-15-24.8-22.6-37.1c-4.2-6.9-3.5-13.2,1.8-16.7c5.6-3.7,11.2-2.2,16.2,4.2c7.6,9.7,15,19.6,22.7,29.2
		c3.1,3.9,6.2,8,10.2,10.8c22.9,16.5,33.7,38.2,30,66.6c-0.9,6.4-1,13-1.2,19.4c-0.1,4.1-1.8,5.8-6,5.7c-13.9-0.1-27.7-0.2-41.6-0.1
		c-4.5,0-6.6-1.9-6.1-6.3c1.8-16-4.4-28.5-15.5-39.8c-9.5-9.7-17-21.4-26.5-31.2c-11.5-11.9-15.4-26-16.5-41.8
		c-1.3-18.6-3.5-37-5.4-55.6c-0.1-0.8-0.6-1.6-1-2.4C33.5,144.1,33.5,141.5,33.5,138.9z"/>
	<path class="st0" d="M297.4,140.8c-1.6,12.7-3.2,25.5-4.8,38.7c-2.3-1.1-4.4-2.1-6.7-3.3c3.1-12.1,2.4-25.2,9.7-35.9
		C296.2,140.5,296.8,140.6,297.4,140.8z"/>
	<path class="st0" d="M73.8,176.3c-2.6,1.3-4.4,2.2-6.8,3.4c-1.6-13.3-3.2-26.1-4.8-38.9C71.8,150.7,70.3,164,73.8,176.3z"/>
	<path class="st0" d="M283.3,151.3c-1.6,7.3-3,14.6-5,21.7c-0.4,1.5-3,2.5-5.2,3.2C275,167.2,275.2,157.8,283.3,151.3z"/>
	<path class="st0" d="M76.4,151.4c8.4,6.3,7.8,15.9,11.2,24c-0.5,0.4-1,0.9-1.6,1.3c-1.6-1.2-4.2-2.1-4.6-3.6
		C79.4,166,78,158.6,76.4,151.4z"/>
</g>
<g>
	<path class="st1" d="M93.8,47.9c1.7,0,3.3,0,5,0c4.4,0.1,8.9-0.1,13.3-0.6c5.8-0.8,11.5-2.2,16.9-4.7c5.8-2.8,11.5-5.9,17.2-8.8
		c6.4-3.3,12.9-6.2,20-7.8c5.8-1.3,11.6-1.7,17.5-1.4c10.2,0.5,19.7,3.8,28.7,8.5c5.5,2.9,10.9,5.8,16.4,8.6
		c6.4,3.2,13.2,5.1,20.3,5.9c5.3,0.6,10.6,0.5,15.9,0.5c0.4,0,0.7,0,1.1,0c0,0.3,0,0.5,0,0.7c-0.1,6.8-0.1,13.6-0.4,20.4
		c-0.3,7.3-1.1,14.6-2.1,21.8c-1.6,11.3-4.2,22.3-7.7,33.1c-5.1,15.6-12.2,30.2-21.7,43.6c-10,14.2-22.1,26.3-36.6,35.9
		c-5.4,3.6-11.1,6.9-17.2,9.2c-0.3,0.1-0.8,0.1-1.1,0c-8.3-3.3-15.8-8-23-13.4c-15.8-11.8-28.3-26.5-38.2-43.5
		c-7.7-13.2-13.3-27.3-17.2-42c-2.3-8.5-4-17.2-5.2-26c-1.6-12.1-2.2-24.3-2.1-36.5c0-1.1,0-2.2,0-3.3C93.7,48.1,93.7,48,93.8,47.9z
		 M249.7,62.2c-1.1-0.1-2.2-0.3-3.3-0.4c-7.9-1.1-15.5-3-22.9-5.9c-6.2-2.4-11.9-5.6-17.7-8.8c-7.2-3.8-14.6-6.7-22.9-7.1
		c-7.2-0.4-14.1,0.6-20.8,3.2c-5.2,2.1-10,4.8-14.9,7.5c-10.6,5.8-22,9.4-33.9,11c-1.1,0.2-2.3,0.3-3.4,0.5c0,0.3,0,0.5,0,0.7
		c0.4,5.6,0.6,11.2,1.1,16.8c0.7,8,2,15.9,3.8,23.7c2.8,12.3,6.7,24.3,12.2,35.7c8.3,17.2,19.6,32.1,34.3,44.5
		c5.5,4.6,11.3,8.7,17.8,11.8c0.5,0.2,0.9,0.3,1.4,0c2.7-1.5,5.4-2.8,8-4.5c10.9-6.9,20-15.9,28-25.9c7.9-9.8,14.1-20.5,19-32.1
		c6.4-15.1,10.4-30.9,12.5-47.1c0.8-6.5,1.2-13.1,1.7-19.7C249.8,64.9,249.7,63.6,249.7,62.2z"/>
	<path class="st1" d="M195.5,157.5c-10.4,0-20.8,0-31.3,0c0.3-2,0.6-4,0.9-6c0.8-5.3,1.5-10.6,2.3-15.9c0.8-5.7,1.6-11.4,2.4-17
		c0.1-0.7,0.5-1.6,0.2-2.1c-0.2-0.5-1.1-0.8-1.7-1.2c-6.8-4.1-10.9-10.1-11.7-18c-1.3-12.3,7.1-23.3,19.2-25.5
		c12.3-2.3,24.2,5.7,27,17.9c2.4,10.5-2.7,21.3-12.4,26.1c-0.6,0.3-0.8,0.6-0.7,1.2c0.8,5.6,1.6,11.3,2.4,17
		c0.8,5.6,1.6,11.3,2.4,16.9C194.9,153,195.2,155.2,195.5,157.5z"/>
</g>
</svg>
