<?xml version="1.0" encoding="utf-8"?>
<!-- Generator: Adobe Illustrator 22.1.0, SVG Export Plug-In . SVG Version: 6.00 Build 0)  -->
<svg version="1.1" id="Layer_1" xmlns="http://www.w3.org/2000/svg" xmlns:xlink="http://www.w3.org/1999/xlink" x="0px" y="0px"
	 viewBox="0 0 353 342" style="enable-background:new 0 0 353 342;" xml:space="preserve">
<style type="text/css">
	.st0{fill:none;stroke:#FFFFFF;stroke-width:8;stroke-miterlimit:10;}
	.st1{fill:#FFFFFF;}
	.st2{fill:none;stroke:#FFFFFF;stroke-width:3;stroke-miterlimit:10;}
</style>
<path class="st0" d="M158.1,127c-23.1-0.2-45.3-2-67.1-6.8c-15.1-3.4-29.8-7.7-43-16.1c-3-1.9-5.8-4.1-8.4-6.6
	c-9.2-9.1-9.2-19.7,0-28.9C46,62.2,53.8,58.2,62,54.8c13.9-5.7,28.4-9.2,43.1-11.5c15.2-2.4,30.4-3.6,45.8-3.9
	c19.4-0.3,38.7,0.7,57.9,3.8c15.1,2.4,29.9,5.8,44.1,11.7c8.4,3.5,16.5,7.7,22.9,14.4c4.1,4.3,6.8,9.3,6.2,15.5
	c-0.5,4.7-2.8,8.6-6,11.9c-6.8,7.1-15.3,11.4-24.2,15c-14.7,5.9-30,9.3-45.6,11.7C190,125.8,173.7,126.7,158.1,127z"/>
<path class="st0" d="M33,100.3c4.6,10.8,13.7,16.3,23.4,21.1c11.1,5.5,22.9,9.2,35,11.4c12.2,2.2,24.4,4.6,36.8,5.5
	c15.5,1.1,31.1,1.4,46.7,0.9c12.9-0.5,25.8-2.5,38.6-4.3c12.6-1.8,24.8-5.1,36.6-9.7c9.3-3.6,18.3-7.8,25.3-15.1
	c2.6-2.7,4.6-6.2,6.8-9.3c0,0.6,0.1,1.4,0.1,2.2c0,9.9-0.3,19.8,0.1,29.7c0.4,8.5-3.2,14.9-9.4,20.1c-7.9,6.6-17.1,10.7-26.7,14.1
	c-13.6,4.8-27.6,7.7-41.8,9.8c-13.4,1.9-26.9,2.8-40.5,3.1c-18.6,0.4-37.1-0.6-55.5-3.4c-18.2-2.7-36.1-6.9-52.8-15.1
	c-6.5-3.2-12.6-7-17.4-12.6c-3.4-4-5.3-8.5-5.2-14c0.2-10.7,0-21.4,0.1-32.2C32.8,101.8,32.9,101,33,100.3z"/>
<path class="st1" d="M333.4,247.4c0.5,36.8-29.3,65.9-64.3,67.1c-39.2,1.3-69.1-30.6-69.3-66.3c-0.2-37.3,30.2-66.7,65.3-67.4
	C303.1,180.1,333.8,211.1,333.4,247.4z M268.6,294.2c9.2,0,18.4,0,27.5,0c6.4,0,10-3.6,10.1-9.9c0-12.9,0-25.8,0-38.7
	c0-6.3-3.8-10-10-10c-18.5,0-37,0-55.5,0c-6,0-9.9,3.9-9.9,9.9c0,12.8,0,25.7,0,38.5c0,6.5,3.8,10.2,10.3,10.2
	C250.3,294.2,259.4,294.2,268.6,294.2z M268.6,199.1c0,0.1,0,0.2,0,0.3c-3.3,0-6.7-0.1-10,0c-9.3,0.2-17.5,6.2-19.3,15.2
	c-1.1,5.5-0.7,11.3-0.8,16.9c0,0.5,1.2,1.5,1.9,1.6c2.1,0.2,4.2,0,6.3,0.1c1.8,0.1,2.3-0.8,2.2-2.4c-0.1-2.8,0-5.5,0-8.3
	c0-6.5,4.2-12.6,10.6-13.7c5.1-0.9,10.5-1,15.7-0.6c7.7,0.7,12.8,6.8,13,14.6c0.1,2.7,0,5.4,0,8c0,1.6,0.7,2.4,2.3,2.3
	c1.9,0,3.9-0.1,5.8,0c1.7,0.1,2.3-0.7,2.3-2.3c0-3.8,0-7.6,0-11.4c-0.1-9.5-6.6-17.7-16-19.4C278,199.3,273.3,199.4,268.6,199.1z"/>
<path class="st0" d="M223.9,185.6c-6.3,4.4-11.8,9.6-16.6,15.7c-5.9,7.6-10.4,16-13,25.4c-0.6,2.1-1.3,3.6-3.9,3.6
	c-13.5,0.4-27.1,1.3-40.6,1.3c-10.1,0-20.3-0.8-30.3-1.9c-22.6-2.5-44.7-6.8-65.3-17.1c-7.3-3.7-14.1-8.1-18.6-15.2
	c-1.9-2.9-2.8-6.1-2.8-9.6c0.1-11,0-22.1,0-33.1c0-0.8,0.1-1.5,0.2-3c5.1,12.5,15.5,18.2,26.2,23.1c15.9,7.2,32.8,11.3,50.1,13.4
	c12.5,1.6,25.2,2.4,37.8,3.3c15.8,1.1,31.5-0.1,47.1-1.7c8.9-0.9,17.8-2.8,26.7-4.2c0.9-0.1,1.9-0.3,2.8-0.4
	C223.8,185.2,223.8,185.4,223.9,185.6z"/>
<path class="st0" d="M32.9,204.1c3.6,8.8,10.5,13.9,18.1,18.3c10.1,5.9,21.1,9.5,32.3,12.5c14.2,3.8,28.7,6,43.3,7.3
	c16.8,1.6,33.5,1.5,50.3,0.8c4.7-0.2,9.3-0.7,14.4-1.1c-0.9,13.7,1.5,26.5,7.6,39c-1.8,0.3-3.2,0.8-4.7,0.8
	c-15.1,0.7-30.1,1.9-45.2,1.8c-19.1-0.1-38.2-2.2-57-6.3c-14.9-3.3-29.6-7.4-42.7-15.5c-3.8-2.3-7.2-5.2-10.5-8.2
	c-4.2-4-6.3-9-6.2-15c0.2-10.7,0-21.4,0.1-32.1C32.8,205.6,32.9,204.8,32.9,204.1z"/>
<path class="st0" d="M282,173.3c-6.9-0.5-13.4-0.9-20.3-1.3c8.2-5.1,16.5-10,20.3-19.6C282,159.3,282,166.4,282,173.3z"/>
<path class="st2" d="M276.5,262.9c-0.7,1.5-0.9,3.5-2.1,4.5c-2.6,2.1-3,4.7-2.8,7.7c0.1,2.5-1.3,3.6-3.6,3.3c-1.8-0.2-2.8-1.2-2.9-3
	c0-0.9-0.1-1.8,0-2.7c0.1-1.8-0.3-3.1-1.8-4.4c-2.6-2.1-3.1-6.3-1.5-9.1c1.9-3.3,5.3-4.7,9.2-3.6
	C273.9,256.3,276.1,259.5,276.5,262.9z"/>
</svg>
