<?xml version="1.0" encoding="utf-8"?>
<!-- Generator: Adobe Illustrator 22.1.0, SVG Export Plug-In . SVG Version: 6.00 Build 0)  -->
<svg version="1.1" id="Layer_1" xmlns="http://www.w3.org/2000/svg" xmlns:xlink="http://www.w3.org/1999/xlink" x="0px" y="0px"
	 viewBox="0 0 353 342" style="enable-background:new 0 0 353 342;" xml:space="preserve">
<style type="text/css">
	.st0{fill:#6BED3D;}
	.st1{fill:#FFFFFF;}
</style>
<g>
	<path class="st0" d="M235.6,148.8c11.7,0,23,0,34.7,0c0,11.6,0,23.2,0,35c-11.4,0-22.9,0-34.7,0
		C235.6,172.3,235.6,160.8,235.6,148.8z"/>
	<path class="st0" d="M270.4,246.3c0,11.6,0,22.9,0,34.5c-11.7,0-23.2,0-35,0c0-11.5,0-22.7,0-34.5
		C246.9,246.3,258.4,246.3,270.4,246.3z"/>
	<path class="st0" d="M270.4,198c0,11.4,0,22.5,0,34c-11.7,0-23.2,0-35,0c0-11.4,0-22.5,0-34C246.9,198,258.4,198,270.4,198z"/>
</g>
<g>
	<path class="st1" d="M89.4,246.6c11.8,0,23.1,0,35.2,0c0,5.7,0,11.5,0,17.2c0,4.3-0.1,8.7,0,13c0.1,2.9-0.7,4.3-3.9,4.2
		c-9.2-0.2-18.3,0.1-27.5-0.2c-1.3,0-3.6-1.7-3.7-2.6C89.3,267.8,89.4,257.3,89.4,246.6z"/>
	<path class="st1" d="M138.3,246.5c12,0,23.3,0,35.2,0c0,10.8,0.1,21.3-0.1,31.9c0,0.9-2.1,2.4-3.2,2.5c-9.5,0.2-19,0.2-28.4,0
		c-1.2,0-3.2-1.9-3.2-3C138.2,267.6,138.3,257.3,138.3,246.5z"/>
	<path class="st1" d="M221.6,166.4c0,4.5-0.1,9,0,13.5c0.1,2.9-0.8,4.2-4,4.2c-8.8-0.2-17.7-0.2-26.5,0c-3.2,0.1-4-1.3-4-4.2
		c0.1-9,0.1-18,0-27c0-2.9,0.8-4.2,4-4.2c8.8,0.2,17.7,0.2,26.5,0c3.2-0.1,4,1.3,3.9,4.2C221.5,157.4,221.6,161.9,221.6,166.4z"/>
	<path class="st1" d="M106.9,197.7c4.5,0,9,0.1,13.5,0c2.9-0.1,4.2,0.8,4.2,4c-0.1,8.8-0.1,17.6,0,26.5c0.1,3.1-1.2,4.1-4.1,4.1
		c-9-0.1-18-0.1-27,0c-2.9,0-4.2-0.9-4.2-4c0.1-8.8,0.1-17.6,0-26.5c0-3.1,1.2-4.1,4.2-4C97.9,197.8,102.4,197.7,106.9,197.7z"/>
	<path class="st1" d="M156.4,197.7c4.5,0,9,0.1,13.5,0c2.8-0.1,3.8,1.1,3.7,3.8c-0.1,8.8-0.1,17.6,0,26.4c0,2.9-0.8,4.3-3.9,4.2
		c-9.1-0.1-18.3-0.1-27.4,0c-3,0-4.1-1.2-4-4.2c0.1-8.6,0.2-17.3,0-25.9c-0.1-3.7,1.4-4.6,4.7-4.4
		C147.4,197.9,151.9,197.7,156.4,197.7z"/>
	<path class="st1" d="M221.5,246.4c0,10.9,0.1,21.1-0.2,31.2c0,1.1-2.3,3.2-3.5,3.2c-9,0.3-17.9,0.1-26.9,0.2
		c-2.9,0-3.8-1.2-3.7-3.9c0.1-8.8-0.1-17.6,0.2-26.4c0-1.4,1.8-4,2.8-4.1C200.4,246.3,210.7,246.4,221.5,246.4z"/>
	<path class="st1" d="M204.4,197.7c4.3,0,8.7,0.1,13,0c2.9-0.1,4.3,0.8,4.2,4c-0.1,8.8-0.1,17.7,0,26.5c0,3.1-1.3,4.1-4.2,4
		c-8.7-0.1-17.3-0.1-26,0c-2.9,0-4.3-0.9-4.2-4c0.1-8.8,0.1-17.7,0-26.5c0-3.1,1.3-4.1,4.2-4C195.7,197.8,200.1,197.7,204.4,197.7z"
		/>
	<path class="st1" d="M173.2,154.7c0,10,0,19.3,0,29.2c-11,0-21.8,0-32.6-0.1c-0.8,0-1.9-0.8-2.1-1.4c-0.2-0.8,0.2-1.9,0.8-2.6
		c0.4-0.6,1.4-0.9,2.1-1.3C153.6,173.1,164.1,165.4,173.2,154.7z"/>
	<path class="st1" d="M302.3,128.9c-36.8,0-73.6,0-110.4,0c0-0.1,0-0.1,0-0.2c36.8,0,73.6,0,110.4,0
		C302.3,128.7,302.3,128.8,302.3,128.9z"/>
	<g>
		<path class="st1" d="M41.2,155.7c7.4,5.3,10.8,11,10.7,20.2c-0.6,36-0.3,72-0.3,108c0,12.1,4.8,16.8,17,16.8c74.5,0,149,0,223.5,0
			c11.7,0,16.2-4.6,16.2-16.4c0-49.7,0-99.3,0-149c0-21.5-0.2-43-0.3-64.5c-0.1-9.1-4.3-13.4-13.6-13.5c-10-0.1-20-0.2-30,0.1
			c-5,0.1-5.1-2.5-5.2-6.2c-0.1-4.1,1.2-5.6,5.4-5.4c9.7,0.3,19.3,0.1,29,0.1c15.9,0,25.8,10,25.9,26c0.1,35,0,70,0,105
			c0,35.8,0,71.7,0,107.5c0,17.7-9.9,27.6-27.5,27.6c-74.7,0-149.3-0.1-224,0.1c-15.6,0-27.1-10.6-26.9-26.6
			c0.6-41.3,0.2-82.7,0.2-124C41.2,159.6,41.2,157.8,41.2,155.7z"/>
		<path class="st1" d="M107.3,21.6c43.5,0,78.2,34.6,78.1,78c0,43.8-35,78.4-79.1,78.3c-42.8-0.1-77.3-35.1-77.3-78.5
			C29.2,55.9,63.6,21.6,107.3,21.6z M107.4,32C70,32,39.6,62.2,39.5,99.4c-0.1,36.7,29,68,67.8,67.9c37.3,0,67.7-29.3,67.6-67.6
			C174.9,59.8,143,32.1,107.4,32z"/>
		<path class="st1" d="M174.6,45.8c17.5,0,33.9,0,50.4,0c3.5,0,3.8,2.1,3.5,4.6c-0.3,2.6,1.7,6.8-3.3,6.8c-13.6,0.2-27.3,0.1-40.9,0
			c-1.1,0-2.6-0.9-3.3-1.8C178.9,52.6,177.1,49.6,174.6,45.8z"/>
		<path class="st1" d="M102.2,75.4c0-8.5,0.2-17-0.1-25.5c-0.1-4.4,2.4-4.2,5.4-4.2c3,0,5.1,0.2,5,4.2c-0.2,13,0.1,26-0.1,39
			c-0.1,4.7,1.6,6.1,6.1,6c8.8-0.3,17.6,0.1,26.5-0.2c4.1-0.1,4.6,1.8,4.5,5.2c0,3.2-0.2,5.4-4.4,5.3c-12.8-0.2-25.6-0.2-38.5,0
			c-3.6,0-4.6-1.4-4.5-4.7C102.3,92,102.2,83.7,102.2,75.4z"/>
		<path class="st1" d="M245.4,87.6L245.4,87.6c-3,0-5.5-2.5-5.5-5.5v-55c0-3,2.5-5.5,5.5-5.5l0,0c3,0,5.5,2.5,5.5,5.5v55
			C250.9,85.1,248.4,87.6,245.4,87.6z"/>
	</g>
</g>
<path class="st1" d="M251.6,220.9c1.7-1.7,3.3-3.4,5-5c2.5-2.5,5.1-5.1,7.6-7.6c1-1,2.1-1.1,2.8-0.3c0.7,0.8,0.6,1.8-0.4,2.7
	c-4.4,4.4-8.8,8.8-13.2,13.2c-1.2,1.2-2.3,1.2-3.5,0c-2.3-2.3-4.6-4.6-6.9-6.9c-1-1-1.1-2.1-0.4-2.8c0.8-0.7,1.8-0.6,2.8,0.5
	C247.4,216.7,249.5,218.7,251.6,220.9z"/>
<path class="st1" d="M251.6,170.4c1.7-1.7,3.3-3.4,5-5c2.5-2.5,5.1-5.1,7.6-7.6c1-1,2.1-1.1,2.8-0.3c0.7,0.8,0.6,1.8-0.4,2.7
	c-4.4,4.4-8.8,8.8-13.2,13.2c-1.2,1.2-2.3,1.2-3.5,0c-2.3-2.3-4.6-4.6-6.9-6.9c-1-1-1.1-2.1-0.4-2.8c0.8-0.7,1.8-0.6,2.8,0.5
	C247.4,166.2,249.5,168.3,251.6,170.4z"/>
<path class="st1" d="M251.6,268.5c1.7-1.7,3.3-3.4,5-5c2.5-2.5,5.1-5.1,7.6-7.6c1-1,2.1-1.1,2.8-0.3c0.7,0.8,0.6,1.8-0.4,2.7
	c-4.4,4.4-8.8,8.8-13.2,13.2c-1.2,1.2-2.3,1.2-3.5,0c-2.3-2.3-4.6-4.6-6.9-6.9c-1-1-1.1-2.1-0.4-2.8c0.8-0.7,1.8-0.6,2.8,0.5
	C247.4,264.2,249.5,266.3,251.6,268.5z"/>
</svg>
