<?xml version="1.0" encoding="utf-8"?>
<!-- Generator: Adobe Illustrator 22.1.0, SVG Export Plug-In . SVG Version: 6.00 Build 0)  -->
<svg version="1.1" id="Layer_1" xmlns="http://www.w3.org/2000/svg" xmlns:xlink="http://www.w3.org/1999/xlink" x="0px" y="0px"
	 viewBox="0 0 241 239" style="enable-background:new 0 0 241 239;" xml:space="preserve">
<style type="text/css">
	.st0{fill:#43BDEF;}
</style>
<path class="st0" d="M233.3,111.3c0,4.5,0,9.1,0,13.6c-0.1,0.5-0.3,1-0.3,1.6c-0.9,5.6-1.5,11.2-2.6,16.8c-1.8,9-5.1,17.5-9.2,25.7
	c-8.3,16.3-19.9,29.8-34.8,40.4c-15.1,10.8-31.8,17.4-50.2,19.9c-2.7,0.4-5.4,0.7-8.1,1.1c-4.5,0-9.1,0-13.6,0
	c-2.7-0.4-5.4-0.7-8.1-1.1c-12.7-1.6-24.7-5.4-36-11.2C54,209.7,40.6,198.1,30,183.3c-10.8-15.1-17.4-31.8-19.9-50.2
	c-0.4-2.7-0.7-5.4-1.1-8.1c0-4.5,0-9.1,0-13.6c0.1-0.5,0.3-1,0.3-1.6c0.8-5.5,1.4-11.1,2.6-16.6C16,74.5,24.7,58.1,37.3,43.7
	c7.1-8,15.2-14.9,24.4-20.6c13.7-8.6,28.5-14,44.6-16.1c2.7-0.4,5.4-0.7,8.1-1.1c4.5,0,9.1,0,13.6,0c0.5,0.1,1,0.3,1.6,0.3
	c5.6,0.9,11.2,1.5,16.8,2.6c11.8,2.5,22.9,7.1,33.2,13.4c13.1,8,24.1,18.2,33,30.8c10.7,15,17.3,31.6,19.7,49.9
	C232.6,105.8,233,108.6,233.3,111.3z M40.6,169.2c0.6,0.5,0.9,0.7,1.2,0.9c5.7,2.8,11.2,6,17.1,8.2c12.9,4.9,26.3,6.5,40.1,5.5
	c14.8-1.1,28.6-5.2,41.3-12.8c11.8-7.1,21.3-16.5,28.9-28c4.4-6.6,8-13.6,10.7-21c4.2-11.5,6.2-23.4,5.9-35.6c0-0.6,0.4-1.4,0.8-1.8
	c2.2-2,4.6-3.7,6.6-5.8c3.1-3.2,5.9-6.6,8.8-9.9c-0.1-0.2-0.3-0.4-0.4-0.5c-5.7,2.2-11.5,4-17.2,4.7c2.6-2.5,5.4-5,7.9-7.8
	c2.5-2.8,4.3-6.1,5.4-10.2c-0.9,0.5-1.5,0.7-2,1c-5.1,2.8-10.5,4.8-16.1,6.3c-2,0.5-3.3,0.1-4.9-1.2C165,52.5,154,50.1,141.9,54
	c-14.7,4.8-23.7,18.6-22.6,34.2c0.1,1.6,0.3,3.1,0.5,5c-27.7-2-50.4-13.6-68.6-34.9c-8,17.6-4.6,32.2,9.7,44.5
	c-2.5-0.3-4.9-0.7-7.2-1.3c-2.4-0.7-4.6-1.7-7-2.5c-0.6,11,6.7,27.7,25.9,32.8c-4.8,1.3-9.4,1.3-14.4,0.5
	c5.6,14.3,15.7,21.8,30.9,23.2C74.6,166.4,58.7,170.7,40.6,169.2z"/>
</svg>
