<?xml version="1.0" encoding="utf-8"?>
<!-- Generator: Adobe Illustrator 22.1.0, SVG Export Plug-In . SVG Version: 6.00 Build 0)  -->
<svg version="1.1" id="Layer_1" xmlns="http://www.w3.org/2000/svg" xmlns:xlink="http://www.w3.org/1999/xlink" x="0px" y="0px"
	 viewBox="0 0 590 560" style="enable-background:new 0 0 590 560;" xml:space="preserve">
<style type="text/css">
	.st0{fill:#28D16C;}
	.st1{fill:#18BA60;}
	.st2{fill:#0ba9d7;}
	.st3{fill:#20C462;}
</style>
<g>
	<polygon class="st0" points="114.3,264 211.5,94.4 407.4,94.4 310.2,264 	"/>
	<polygon class="st1" points="114.3,295.5 210.6,458.2 407.4,458.2 311.1,295.5 	"/>
	<polygon class="st2" points="456.4,159.2 430.1,113.6 335.7,277.5 430.1,444.2 454.8,400.5 524.5,277.5 	"/>
	<ellipse class="st3" cx="445.2" cy="503.1" rx="28" ry="28"/>
	<ellipse class="st3" cx="51" cy="278.9" rx="28" ry="28"/>
	<circle class="st3" cx="452.3" cy="59.3" r="28"/>
	<g>
		<path class="st3" d="M313.2,522.4c-28.5,0-56.5-4.8-83.1-14.4c-25.7-9.2-49.6-22.7-70.9-39.9c-42.8-34.5-73.1-82.8-85.4-136
			c-0.3-1.4,0.6-2.8,2-3.2c1.4-0.3,2.8,0.6,3.2,2c25.2,109.7,121.6,186.2,234.2,186.2c24.4,0,48.7-3.7,72-11
			c1.4-0.4,2.9,0.3,3.3,1.7c0.4,1.4-0.3,2.9-1.7,3.3C362.9,518.6,338.2,522.4,313.2,522.4z"/>
	</g>
	<g>
		<path class="st3" d="M473.3,462.2c-0.7,0-1.5-0.3-2-0.9c-1-1.1-0.8-2.8,0.2-3.7c52.1-45.7,82-111.7,82-180.9
			c0-66.7-26.7-128.6-75.1-174.5c-1.1-1-1.1-2.7-0.1-3.7c1-1.1,2.7-1.1,3.7-0.1c24,22.7,42.8,49.5,56.1,79.6
			c13.7,31.2,20.6,64.4,20.6,98.7c0,36-7.6,70.7-22.6,103.1c-14.5,31.3-35.1,58.8-61.2,81.7C474.5,462,473.9,462.2,473.3,462.2z"/>
	</g>
	<g>
		<path class="st3" d="M76.5,224.4c-0.2,0-0.4,0-0.6-0.1c-1.4-0.3-2.3-1.7-2-3.2c12.3-53.2,42.6-101.5,85.4-135.9
			c21.4-17.2,45.2-30.6,70.9-39.8c26.6-9.5,54.5-14.4,83-14.4c29.8,0,58.9,5.3,86.5,15.7c1.4,0.5,2,2,1.5,3.4s-2,2-3.4,1.5
			c-27-10.2-55.5-15.3-84.7-15.3c-112.6,0-208.9,76.5-234.2,186.1C78.8,223.6,77.7,224.4,76.5,224.4z"/>
	</g>
</g>
</svg>
