<?xml version="1.0" encoding="utf-8"?>
<!-- Generator: Adobe Illustrator 22.1.0, SVG Export Plug-In . SVG Version: 6.00 Build 0)  -->
<svg version="1.1" id="Layer_1" xmlns="http://www.w3.org/2000/svg" xmlns:xlink="http://www.w3.org/1999/xlink" x="0px" y="0px"
	 viewBox="0 0 241 161.5" style="enable-background:new 0 0 241 161.5;" xml:space="preserve">
<style type="text/css">
	.st0{fill:#FFFFFF;}
</style>
<path class="st0" d="M228.7,41c-15.8,15.8-31.6,31.4-47.4,47.1c-16.5,16.5-33.1,32.9-49.6,49.4c-7.3,7.2-14.9,7.3-22.2,0
	c-32.1-31.9-64.2-63.8-96.3-95.8c-6.9-6.9-6.9-11.5,0.1-18.4c11-11,13.5-11.1,24.5-0.1C54,39.5,83.1,68.1,97.1,81.9
	c5,4.9,8,7.9,8,7.9v-0.1l15.4,15l17.2-16.6c1.1-0.9,1.9-1.7,2.7-2.4c1.4-1.4,2.9-2.9,4.3-4.3l0.1-0.1l0,0
	c20.4-20.2,40.7-40.4,61.1-60.7c7.5-7.4,11.7-7.4,19.2,0c1.3,1.2,2.5,2.5,3.8,3.7C234.4,30.1,234.4,35.2,228.7,41z"/>
</svg>
